<svg width="169" height="172" viewBox="0 0 169 172" fill="none" xmlns="http://www.w3.org/2000/svg">
<g clip-path="url(#clip0_2_23)">
<path d="M92.8881 171.11C134.431 171.11 168.108 136.611 168.108 94.0548C168.108 51.4986 134.431 17 92.8881 17C51.3452 17 17.668 51.4986 17.668 94.0548C17.668 136.611 51.3452 171.11 92.8881 171.11Z" fill="#FFC6A6"/>
<path d="M121.033 166.642C116.145 168.863 111.247 170.612 106.675 172.68C102.311 173 97.6215 173 92.4532 172.62C88.5552 167.848 91.7766 163.492 92.2184 158.837C94.0501 157.011 95.7056 155.469 97.6877 153.95C98.6778 153.987 99.3413 154.003 100.161 154.286C104.323 155.7 108.276 157.416 112.352 157.789C115.077 158.038 119.037 157.82 119.32 153.079C120.101 153.032 120.548 153.01 120.994 152.987C121.004 157.381 121.013 161.776 121.033 166.642Z" fill="#F7D6B6"/>
<path d="M92.0421 159.12C91.7766 163.492 88.5552 167.848 91.9871 172.62C88.6387 173 85.2774 173 81.4581 173C81.4626 173 81.9252 172.999 82.8935 172.596C83.3992 172.192 83.2966 172.197 83.5919 172.308C85.6079 168.668 87.3285 164.916 89.2903 160.977C90.3684 160.232 91.2052 159.676 92.0421 159.12Z" fill="#E4CAB2"/>
<path d="M32.0717 139.34C25.7833 131.362 22.1561 122.112 20.1237 112.34C18.806 106.004 18.6583 99.424 18.1889 92.2511C24.8475 89.1876 29.7376 85.0629 33.1065 79.0064C34.003 77.3946 35.7066 76.2317 37.2009 75.2047C37.9453 77.0275 38.8316 78.463 39.0607 79.9967C40.2445 87.9206 41.26 95.8697 42.3842 104.14C42.9294 105.934 43.4248 107.397 43.8645 109.334C43.4914 114.855 43.1741 119.902 42.6043 125.08C42.1896 125.744 42.0275 126.279 41.6022 126.972C40.8499 128.02 40.3609 128.909 39.5955 129.994C36.9033 133.241 34.4875 136.291 32.0717 139.34Z" fill="#FEC5A6"/>
<path d="M92.2184 158.837C91.2052 159.676 90.3684 160.232 88.8962 160.957C83.0022 162.137 81.6998 165.042 83.2966 172.197C83.2966 172.197 83.3992 172.192 83.4488 172.206C72.228 170.083 61.441 166.532 52.0074 159.899C47.4098 156.666 43.4732 152.493 39.1029 148.03C39.5768 141.705 41.8395 140.435 46.7367 142.256C49.5993 143.32 52.8009 143.472 55.9863 144.234C56.2892 144.714 56.5077 144.945 56.8164 145.542C57.2387 148.968 57.6226 151.98 58.0026 155.353C58.8459 156.644 60.2993 158.473 60.4503 158.372C63.203 156.515 66.0225 154.651 68.3636 152.322C70.5302 150.167 72.1491 147.461 74.3998 144.995C79.9854 143.894 78.6968 139.087 80.3116 135.935C82.107 136.041 83.6438 136.004 85.375 136.036C85.8143 136.264 85.9658 136.486 85.6903 136.84C83.1749 140.679 87.4421 141.05 88.7932 143.343C89.9695 144.443 90.9525 145.261 91.8881 146.085C91.8408 146.092 91.8054 146.18 91.8136 146.533C93.6682 149.232 95.5146 151.579 97.3611 153.927C95.7056 155.469 94.0502 157.011 92.2184 158.837ZM72.9539 162.125C72.1088 162.846 71.2636 163.568 70.4184 164.289C71.16 164.771 71.9017 165.254 72.6433 165.736C72.9142 164.674 73.1851 163.612 72.9539 162.125Z" fill="#6680C4"/>
<path d="M37.0396 74.8627C35.7066 76.2317 34.003 77.3946 33.1064 79.0064C29.7376 85.0629 24.8475 89.1876 18.1391 91.7989C13.6399 92.4479 10.1131 91.6536 9.40706 86.3562C10.3054 85.6278 10.8735 85.2758 11.4416 84.9237C11.3042 84.7119 11.1668 84.5 11.0295 84.2882C10.3199 84.5423 9.61033 84.7964 8.90076 85.0505C8.62996 84.5481 8.35915 84.0458 8.31489 83.0408C8.41085 81.7103 8.28028 80.8824 8.1497 80.0544C8.11997 76.6733 8.09024 73.2921 8.45707 69.4724C12.8343 69.7237 12.5727 72.2685 11.2807 74.8439C13.7279 74.8439 15.9177 74.8439 18.5254 74.8439C18.5254 73.5645 18.5254 72.05 18.5254 70.0779C16.9576 70.6038 15.8053 70.9903 14.0048 71.5943C12.9831 68.6549 11.8183 65.8765 11.1503 62.9833C10.981 62.25 12.3945 61.1513 13.0808 60.2205C13.7113 61.036 14.4911 61.7786 14.9349 62.6856C15.4925 63.8251 15.4107 65.7322 16.2379 66.2084C20.3834 68.5952 24.7359 70.6226 27.3745 71.9504C30.734 70.1887 32.9224 69.1197 35.0224 67.8986C35.7894 67.4526 36.3463 66.6451 37.2536 65.7583C38.6665 65.3458 39.825 65.1774 40.9924 65.2663C41.0115 65.6947 41.0215 65.8659 40.8795 66.3545C39.4981 69.4021 38.2689 72.1324 37.0396 74.8627Z" fill="#4B246B"/>
<path d="M36.9991 66.0024C36.3463 66.6451 35.7894 67.4526 35.0224 67.8986C32.9225 69.1197 30.7341 70.1887 27.3745 71.9504C24.7359 70.6226 20.3834 68.5952 16.2379 66.2084C15.4107 65.7322 15.4925 63.8251 14.9349 62.6856C14.4911 61.7786 13.7114 61.036 13.0808 60.2205C12.3946 61.1513 10.981 62.25 11.1503 62.9833C11.8183 65.8765 12.9831 68.6549 14.0048 71.5943C15.8053 70.9903 16.9577 70.6038 18.5254 70.0779C18.5254 72.05 18.5254 73.5645 18.5254 74.8439C15.9178 74.8439 13.7279 74.8439 11.2808 74.8439C12.5727 72.2685 12.8343 69.7237 8.51479 69.0162C8.15904 63.6208 8.14215 58.243 8.59847 52.9609C10.3073 53.3724 11.5336 53.7319 12.7801 53.9964C18.6407 55.2396 24.0763 57.137 27.0891 63.345C30.4508 64.4565 33.7249 65.2295 36.9991 66.0024Z" fill="#4C276C"/>
<path d="M27.0016 63.0065C24.0763 57.137 18.6407 55.2396 12.7802 53.9963C11.5336 53.7319 10.3073 53.3724 8.76904 52.7101C10.7485 50.2705 13.0306 48.1775 15.7275 46.4645C17.4289 47.5665 18.7154 48.2885 20.0654 49.3724C20.9361 50.4615 21.6522 51.6638 22.5655 51.8392C28.6873 53.0145 34.8511 53.9714 41.0027 55.2477C41.0041 55.4963 41.0046 55.9935 41.0027 56.3697C40.9999 57.4982 40.9989 58.2504 40.6176 58.9896C37.3096 58.5209 34.5041 55.2442 31.4041 58.7058C30.0386 60.2307 28.4752 61.5784 27.0016 63.0065Z" fill="#4F3275"/>
<path d="M20.0019 49.0106C18.7154 48.2886 17.4289 47.5665 16.0822 46.5086C20.0634 45.1017 24.1048 44.0308 28.6538 43.2821C30.4712 44.0746 31.8484 44.4125 33.0785 45.0392C37.1949 47.1362 44.3669 44.0776 45.013 52.4264C45.0031 53.5288 44.9901 54.2647 44.6618 55.1441C43.2326 55.5229 42.1186 55.7582 41.0046 55.9935C41.0046 55.9935 41.0041 55.4963 41.0561 54.882C42.792 50.3642 40.679 49.1068 37.2857 49.0471C31.526 48.9458 25.7633 49.0138 20.0019 49.0106Z" fill="#57417E"/>
<path d="M45.01 52.0598C44.3669 44.0776 37.1949 47.1361 33.0785 45.0391C31.8484 44.4125 30.4712 44.0746 29.0505 43.2326C32.2725 42.2163 35.6054 41.5718 39.3425 40.9469C43.1446 40.6003 46.5424 40.2341 50.5979 40.0486C51.5189 40.8363 51.7823 41.4432 52.0382 42.0321C52.0307 42.0141 52.0466 42.0289 51.7006 42.1048C50.8928 43.4174 50.4311 44.654 49.9515 45.9205C49.9336 45.9502 49.8939 46.0073 49.726 46.1125C49.3456 46.3806 49.177 46.5804 48.7938 47.0303C47.3603 48.8489 46.1852 50.4544 45.01 52.0598Z" fill="#634F84"/>
<path d="M32.0414 139.632C34.4875 136.291 36.9033 133.241 39.6615 130.281C43.3508 132.226 46.6977 134.081 50.3101 136.108C51.0611 137.177 51.5466 138.073 52.1998 139.206C52.899 139.646 53.4306 139.85 54.076 140.305C54.4195 141.052 54.6492 141.548 54.5031 142.023C52.3179 141.242 50.3912 140.679 48.7219 139.684C44.385 137.099 40.165 133.792 36.4963 140.59C36.1014 141.321 34.8003 141.564 33.9196 142.034C33.2834 141.33 32.6473 140.627 32.0414 139.632Z" fill="#6961A9"/>
<path d="M33.9679 142.375C34.8003 141.564 36.1014 141.321 36.4963 140.59C40.1649 133.792 44.385 137.099 48.7218 139.684C50.3912 140.679 52.3179 141.242 54.6406 142.267C55.3859 143.033 55.6179 143.534 55.8499 144.035C52.8008 143.472 49.5992 143.32 46.7366 142.256C41.8395 140.435 39.5768 141.705 38.9555 147.72C37.3005 146.323 35.6584 144.52 33.9679 142.375Z" fill="#666FBA"/>
<path d="M8.95374 85.2889C9.61036 84.7964 10.3199 84.5423 11.0295 84.2882C11.1669 84.5 11.3042 84.7119 11.4416 84.9237C10.8735 85.2758 10.3055 85.6278 9.43777 85.9889C9.13814 85.9979 9.00667 85.5274 8.95374 85.2889Z" fill="#4C276C"/>
<path d="M8.09643 80.4133C8.28032 80.8824 8.4109 81.7103 8.34805 82.7389C8.11746 82.217 8.08028 81.4946 8.09643 80.4133Z" fill="#4C276C"/>
<path d="M98.9933 39.0088C100.047 39.006 101.1 39.0031 102.82 39.2465C105.657 40.0013 107.828 40.5097 110.244 41.2453C111.583 41.6884 112.675 41.9043 113.995 42.3745C115.667 43.6905 117.185 44.6675 118.543 45.831C121.713 48.5464 124.806 51.3515 127.955 54.0928C127.981 54.0654 127.928 54.0129 127.855 54.2861C127.838 54.7394 127.894 54.9194 128.085 55.4137C129.197 57.7818 130.174 59.8356 130.813 61.8863C128.766 60.7444 127.056 59.6057 124.454 57.8727C123.119 59.4209 121.511 61.2868 119.624 62.9746C117.915 63.2073 116.485 63.6182 114.698 64.0118C112.236 62.9903 110.13 61.9861 108.017 60.6147C107.691 58.847 107.373 57.4465 107.346 55.8605C110.167 50.1645 105.681 47.4429 102.91 43.6641C101.546 41.8854 100.27 40.4471 98.9933 39.0088Z" fill="#F2CFAE"/>
<path d="M131.991 96.001C133.334 98.0459 134.676 100.091 135.632 102.528C132.851 102.716 130.456 102.511 127.655 102.203C126.479 101.789 125.71 101.478 124.945 100.852C123.676 96.9843 120.856 97.5255 118.581 98.7337C116.901 99.6261 113.799 100.681 115.589 103.814C111.737 103.331 107.912 106.386 104.628 102.554C104.654 101.877 104.675 101.491 105.01 100.855C106.127 98.1378 107.14 95.7156 107.681 93.1922C108.329 90.1723 108.645 87.0234 104.014 86.6991C103.939 85.2636 103.855 84.1277 104.149 83.0023C106.356 83.5138 108.159 84.1629 110.019 84.4749C111.989 84.8054 114.013 84.8153 116.282 85.1706C117.696 86.4312 118.841 87.4864 119.991 88.85C121.342 90.1549 122.689 91.1512 124.221 92.4281C126.934 93.806 129.463 94.9035 131.991 96.001Z" fill="#DBBCA4"/>
<path d="M128.967 137.008C130.434 140.878 129.453 144.122 125.787 147.193C118.175 148.263 110.963 149.937 106.635 141.889C106.451 141.548 104.838 141.975 103.54 141.98C100.145 143.048 97.5495 143.171 97.223 139.061C100.775 138.795 103.777 138.353 104.559 134.22C109.667 134.197 114.317 134.224 118.985 134.624C120.343 137.619 121.684 140.243 123.026 142.866C124.864 140.998 126.701 139.128 128.545 137.264C128.658 137.151 128.825 137.092 128.967 137.008Z" fill="#D78BC5"/>
<path d="M102.998 44.0044C105.681 47.4429 110.167 50.1645 107.273 55.5101C103.588 53.4683 100.269 51.5915 96.6328 49.5356C95.6507 52.5497 90.2194 52.1791 90.6735 56.9862C87.4529 58.5095 82.3983 57.2071 82.7496 62.9804C82.3183 63.0134 82.1443 63 81.793 63.005C81.6157 63.0235 81.2591 63.0313 81.0102 62.8192C80.1552 62.4082 79.549 62.2092 79.0064 61.6416C80.1875 59.8052 81.1859 58.2234 82.4526 56.8981C84.1023 55.1719 85.7935 54.2389 82.8741 51.5822C79.6829 48.6781 77.5777 44.5807 74.9991 41.0034C76.0887 40.6591 77.1784 40.3148 78.9243 40.1374C81.7202 41.9203 83.783 43.6531 86.0176 45.125C89.3197 47.3 99.5695 46.5323 102.998 44.0044Z" fill="#D7BEAA"/>
<path d="M139.169 41.9163C141.865 44.074 144.51 46.3004 147.268 48.3751C153.081 52.7463 153.391 53.7733 150.416 60.2565C149.867 61.4538 149.275 62.6315 148.283 63.7325C147.028 62.5796 146.341 60.7751 145.33 60.5711C140.524 59.6007 136.197 57.9857 132.992 53.6127C132.169 50.4973 131.422 47.7622 131.055 44.9836C134.013 43.9321 136.591 42.9242 139.169 41.9163Z" fill="#4D3376"/>
<path d="M66.0366 44.1297C67.7829 43.4348 69.5292 42.74 71.6363 42.4619C72.2944 44.7784 72.2722 46.8025 72.9541 48.5524C74.4714 52.4465 78.8727 56.1846 72.8408 60.0628C72.4358 60.3231 72.935 61.9897 72.9886 63.3374C72.9062 64.1166 72.8488 64.5608 72.4927 65.0441C71.1423 65.7306 70.0907 66.378 68.9232 66.7061C69.1877 63.9749 69.9076 61.5506 69.8187 59.1563C69.7669 57.762 68.7463 55.8627 67.5806 55.1736C65.6888 54.0552 63.3199 53.7442 61.1622 52.7389C62.7935 49.6335 64.415 46.8816 66.0366 44.1297Z" fill="#AEA3A9"/>
<path d="M146.899 67.9866C145.46 73.6007 146.493 78.7879 149.283 83.8159C150.196 85.4629 150.376 87.517 150.892 89.385C150.211 89.7715 149.53 90.1581 148.849 90.5447C146.223 87.3791 143.49 84.2942 141.005 81.0219C139.075 78.4818 137.454 75.7077 135.352 73.0193C135.008 73.001 135.009 73.0541 135.027 72.8094C135.17 72.228 135.407 72.0203 136.132 71.9443C137.596 71.1411 138.95 70.5315 139.725 69.4907C141.75 66.7719 143.923 65.7229 146.899 67.9866Z" fill="#5E467E"/>
<path d="M73.0137 63.0023C72.935 61.9898 72.4358 60.3232 72.8408 60.0628C78.8728 56.1846 74.4715 52.4466 72.9541 48.5524C72.2723 46.8026 72.2944 44.7784 71.9979 42.4523C72.7753 41.6903 73.552 41.3546 74.6639 41.0112C77.5777 44.5807 79.6829 48.6781 82.8741 51.5822C85.7935 54.2389 84.1023 55.172 82.4526 56.8981C81.1859 58.2234 80.1875 59.8052 78.8121 61.6414C78.5543 62.0098 78.1645 61.9963 77.7846 61.9917C75.9411 62.3255 74.4774 62.6639 73.0137 63.0023Z" fill="#C2AFA8"/>
<path d="M102.91 43.6641C99.5695 46.5323 89.3197 47.3 86.0176 45.125C83.783 43.6531 81.7202 41.9203 79.2858 40.1296C85.3593 39.638 91.7276 39.3211 98.5446 39.0065C100.27 40.4471 101.546 41.8854 102.91 43.6641Z" fill="#E8CAAE"/>
<path d="M147.06 67.7005C143.923 65.7229 141.75 66.7719 139.725 69.4907C138.95 70.5315 137.596 71.1411 136.208 71.5797C135.373 69.3712 134.836 67.5303 134.264 65.4122C134.131 64.7761 134.033 64.417 133.976 63.6663C133.701 60.1808 133.385 57.0869 133.069 53.993C136.197 57.9857 140.524 59.6007 145.33 60.5711C146.341 60.7752 147.028 62.5797 148.016 63.9767C147.852 65.3427 147.537 66.3786 147.06 67.7005Z" fill="#503A7C"/>
<path d="M134.983 72.9923C134.985 73.1698 135.012 73.3559 135.112 74.0375C135.128 74.6901 135.071 74.8475 134.663 75.0773C133.607 76.3531 133.024 77.6517 132.172 78.7395C130.491 80.8848 128.661 82.9134 126.688 84.7261C124.648 83.3261 122.815 82.1904 121.236 80.7754C121.394 76.0002 124.2 73.0486 127.411 70.0382C130.204 70.9987 132.606 72.0264 135.009 73.0541C135.009 73.0541 135.008 73.001 134.983 72.9923Z" fill="#431C7C"/>
<path d="M135.014 75.0048C135.071 74.8475 135.128 74.6901 135.242 74.288C137.631 81.6874 137.814 89.0743 132.341 95.9135C129.463 94.9035 126.934 93.8061 124.302 92.0509C125.285 90.9305 126.488 90.6317 127.43 89.9647C128.687 89.0756 129.741 87.9002 131.118 86.5804C132.574 82.5437 133.794 78.7742 135.014 75.0048Z" fill="#EBBB9F"/>
<path d="M128.061 102.307C130.456 102.511 132.851 102.716 135.646 102.876C142.723 107.091 143.592 108.943 141.335 114.608C140.911 113.642 140.766 112.766 140.651 112.065C138.575 112.778 136.803 113.386 135.013 113.627C134.749 112.51 134.734 111.472 134.218 111.058C131.657 109.005 128.673 107.3 129.685 103.172C129.721 103.025 128.628 102.602 128.061 102.307Z" fill="#6054BC"/>
<path d="M103.891 142.045C104.838 141.975 106.451 141.548 106.635 141.889C110.963 149.937 118.175 148.263 125.487 147.414C124.381 149.02 122.905 150.747 121.212 152.73C120.548 153.01 120.101 153.032 119.061 153.054C118.294 153.045 118.12 153.038 117.646 152.83C115.595 151.966 113.846 151.302 111.982 150.559C111.868 150.479 111.654 150.658 111.389 150.428C110.465 149.967 109.805 149.735 108.842 149.326C103.881 148.815 104.121 145.276 103.891 142.045Z" fill="#E7DCE0"/>
<path d="M128.985 136.593C128.825 137.092 128.658 137.151 128.545 137.264C126.701 139.128 124.864 140.998 123.026 142.866C121.684 140.243 120.343 137.619 119.308 134.476C121.063 133.327 122.512 132.699 124.347 132.048C125.505 131.966 126.277 131.907 127.352 131.878C128.058 131.946 128.461 131.984 128.864 132.022C128.91 133.407 128.956 134.792 128.985 136.593Z" fill="#CB7DC3"/>
<path d="M138.997 41.6168C136.591 42.9242 134.013 43.9321 130.856 44.8663C129.909 44.5002 129.541 44.208 129.108 43.6357C128.719 42.6915 128.397 42.0272 128.025 41.0043C126.355 39.1744 124.733 37.7031 123.101 35.8957C123.096 35.1113 123.102 34.6631 123.107 34.2149C128.347 36.5824 133.586 38.9499 138.997 41.6168Z" fill="#604A83"/>
<path d="M65.8482 43.8774C64.415 46.8816 62.7934 49.6335 61.1266 52.9715C61.0812 53.5576 61.0222 54.026 60.7593 54.1211C60.0087 54.4878 59.5211 54.7594 58.6874 55.1112C57.8904 56.448 57.4395 57.7047 56.7602 59.0166C56.5317 59.0718 56.0703 59.1615 55.9239 58.8318C55.4795 57.5996 55.1815 56.6972 54.9512 55.4527C55.6031 53.3573 56.1873 51.6039 57.0503 49.672C58.5503 47.6429 59.7715 45.7924 61.1726 44.0913C62.2134 43.8222 63.0745 43.4036 63.9356 42.9849C64.5103 43.1983 65.0851 43.4117 65.8482 43.8774Z" fill="#DAB69F"/>
<path d="M129.198 131.881C128.462 131.984 128.059 131.946 127.373 131.507C129.593 129.887 132.095 128.667 134.597 127.448C133.982 126.492 133.41 125.601 133.009 124.48C133.77 123.757 134.358 123.264 135.253 122.666C137.324 121.301 139.088 120.043 140.852 118.784C140.946 124.738 136.137 130.242 129.198 131.881Z" fill="#CEBFBA"/>
<path d="M140.887 118.427C139.088 120.043 137.324 121.302 135.21 122.363C134.529 121.422 134.197 120.678 133.879 119.627C133.883 118.907 133.873 118.495 133.907 117.675C133.976 116.177 134 115.088 134.276 113.998C134.695 113.997 134.863 113.995 135.031 113.994C136.803 113.386 138.575 112.778 140.651 112.065C140.766 112.766 140.911 113.642 141.084 114.866C141.05 116.166 140.986 117.118 140.887 118.427Z" fill="#5D4AB2"/>
<path d="M109.998 41.0182C107.828 40.5097 105.657 40.0013 103.215 39.248C105.396 37.036 107.85 35.0689 110.651 33.4762C110.666 36.2398 110.332 38.629 109.998 41.0182Z" fill="#DAA485"/>
<path d="M63.7689 42.6611C63.0745 43.4035 62.2135 43.8222 61.1648 43.729C60.7812 40.6635 59.678 39.818 57.1283 40.8417C55.53 41.4834 53.7462 41.6632 52.0457 42.0502C51.7822 41.4432 51.5188 40.8363 50.9857 40.0243C52.7166 39.2333 54.6927 38.5369 56.7232 38.0858C60.3276 37.2851 62.6966 38.6753 63.7689 42.6611Z" fill="#6D4C7B"/>
<path d="M110.244 41.2453C110.332 38.629 110.666 36.2398 111.003 33.438C111.756 32.9993 112.507 32.9733 113.649 33.3212C114.345 34.7852 114.65 35.8753 114.955 37.2364C114.988 37.6848 115.019 37.8623 115.024 38.0421C114.996 38.0444 114.975 37.9941 114.678 38.026C114.248 39.0324 114.115 40.0069 113.934 41.2672C113.847 41.7422 113.808 41.9312 113.768 42.1203C112.675 41.9043 111.583 41.6884 110.244 41.2453Z" fill="#C49C8D"/>
<path d="M114.954 36.9655C114.65 35.8754 114.345 34.7853 114.024 33.353C116.8 33.2738 119.593 33.5367 122.746 34.0073C123.102 34.6631 123.096 35.1113 122.694 35.8266C120.237 36.4291 118.177 36.7645 115.828 37.0578C115.343 36.9989 115.149 36.9822 114.954 36.9655Z" fill="#9C808D"/>
<path d="M117.947 153.03C118.12 153.038 118.294 153.045 118.727 153.078C119.037 157.82 115.077 158.038 112.352 157.789C108.276 157.416 104.323 155.7 100.194 153.97C100.379 152.6 100.686 151.815 101.339 151.159C105.12 152.214 108.555 153.139 112.268 154.232C114.346 153.943 116.146 153.487 117.947 153.03Z" fill="#DFCFCB"/>
<path d="M100.994 151.03C100.686 151.815 100.379 152.6 100.038 153.701C99.3414 154.003 98.6779 153.987 97.6877 153.95C95.5146 151.579 93.6682 149.232 92.1702 146.416C93.0644 145.184 93.6102 144.42 94.4454 143.846C96.8212 146.367 98.9077 148.698 100.994 151.03Z" fill="#E7D8D4"/>
<path d="M83.5919 172.308C81.6997 165.042 83.0021 162.137 88.6549 161.145C87.3285 164.916 85.6078 168.668 83.5919 172.308Z" fill="#B9B0B1"/>
<path d="M43.9202 108.861C43.4248 107.397 42.9295 105.934 42.5515 103.802C42.6608 96.3581 42.6301 89.5836 42.67 82.8095C42.6756 81.8497 43.0248 80.892 43.5593 79.9431C45.2653 79.2986 46.627 78.6443 48.2904 78.1251C50.3951 77.8366 52.198 77.413 54.2556 76.9896C54.6801 76.9891 54.8499 76.9883 55.0317 77.3649C55.3668 81.1694 55.69 84.5966 55.6414 88.0359C54.5265 88.0634 53.7834 88.0787 52.8397 87.8523C51.7385 88.0162 50.838 88.4218 49.7446 88.978C49.2993 89.3424 49.1023 89.5987 48.6845 90.0209C47.9157 90.758 47.4231 91.3717 46.6903 92.3022C46.3749 95.1111 46.2997 97.6032 46.1878 100.518C46.2117 102.914 46.2724 104.887 46.2588 107.246C46.1268 108.416 46.0691 109.199 45.7293 109.884C44.9382 109.477 44.4292 109.169 43.9202 108.861Z" fill="#7C8CB6"/>
<path d="M43.8644 109.334C44.4292 109.169 44.9382 109.477 45.7232 109.893C45.9991 109.999 46.0172 109.998 46.0016 110.302C46.3235 111.074 46.6609 111.541 46.9997 112.004C47.0011 111.999 46.9913 111.999 46.9891 112.344C47.9854 114.133 48.984 115.577 49.9922 117.011C50.0018 117 49.9747 117.007 49.9873 117.314C50.3846 118.067 50.7692 118.513 51.2328 119.135C51.4264 119.546 51.582 119.749 51.9024 120.185C52.3443 120.65 52.6624 120.851 52.9841 121.023C52.9878 120.994 52.9409 121.027 52.9743 121.349C53.6399 122.226 54.2721 122.781 55.0011 123.486C55.2515 123.824 55.4399 123.966 55.8198 124.303C56.3022 124.72 56.6281 124.896 56.9139 125.073C56.8739 125.074 56.84 125.147 56.8811 125.494C57.6184 127.562 58.3147 129.281 58.734 131.144C54.2315 132.845 52.8134 131.779 51.8488 127.058C48.6115 126.299 45.7342 125.625 42.8569 124.95C43.1741 119.902 43.4914 114.855 43.8644 109.334Z" fill="#4F2D70"/>
<path d="M42.6043 125.08C45.7342 125.625 48.6115 126.299 51.8488 127.058C52.8135 131.779 54.2316 132.845 58.9772 131.385C60.3135 133.664 61.1294 135.845 61.7083 138.289C61.4714 141.181 61.4714 143.81 61.4714 146.596C59.5564 145.997 58.1672 145.563 56.778 145.128C56.5077 144.945 56.2892 144.713 55.9863 144.234C55.6179 143.534 55.3859 143.033 55.0164 142.288C54.6492 141.548 54.4195 141.052 53.9138 140.061C53.1026 139.368 52.5674 139.169 52.0322 138.97C51.5466 138.073 51.0611 137.177 50.3006 135.726C49.4152 131.556 49.0959 127.718 43.6776 128.686C43.2002 128.771 42.4753 127.47 41.8654 126.814C42.0275 126.279 42.1896 125.744 42.6043 125.08ZM57.9395 136.251C56.7162 135.435 55.4928 134.619 54.2694 133.804C54.0038 134.315 53.7381 134.826 53.4725 135.337C54.7907 136.241 55.0258 139.501 57.9395 136.251Z" fill="#583576"/>
<path d="M43.215 79.9334C43.0248 80.892 42.6756 81.8497 42.67 82.8095C42.6301 89.5836 42.6608 96.3581 42.5016 103.471C41.26 95.8697 40.2445 87.9206 39.0607 79.9967C38.8316 78.463 37.9453 77.0275 37.2009 75.2047C38.2689 72.1324 39.4981 69.4021 41.2395 66.3438C42.4737 66.0047 43.1957 65.9936 44.1527 66.2149C44.3943 67.7569 44.4009 69.0666 44.4044 70.6412C44.4195 71.2658 44.4377 71.6255 44.1089 72.0861C43.2042 73.8227 42.6465 75.4584 42.1937 77.384C42.6041 78.427 42.9095 79.1802 43.215 79.9334Z" fill="#644982"/>
<path d="M41.6022 126.972C42.4753 127.471 43.2002 128.771 43.6776 128.686C49.0959 127.718 49.4152 131.556 50.0352 135.553C46.6977 134.08 43.3508 132.226 39.9378 130.084C40.3609 128.909 40.8499 128.02 41.6022 126.972Z" fill="#63478C"/>
<path d="M61.9452 138.026C61.1293 135.845 60.3135 133.664 59.2543 131.242C58.3147 129.281 57.6184 127.562 57.2759 125.457C60.8092 126.233 63.9292 127.62 67.1889 128.473C69.3357 129.035 71.6838 128.827 73.9819 128.684C74.0552 128.219 74.0883 128.033 74.3419 127.898C74.5625 127.949 74.9993 128.068 74.9792 128.428C76.657 131.123 78.355 133.458 80.0529 135.793C78.6968 139.087 79.9853 143.894 74.1833 144.728C70.3994 142.634 67.2225 140.803 63.8338 138.763C63.063 138.377 62.5041 138.202 61.9452 138.026Z" fill="#6B80BE"/>
<path d="M74.9993 128.068C74.9993 128.068 74.5626 127.949 74.2916 127.551C73.706 126.088 73.3914 125.022 72.9243 123.647C71.4721 120.567 70.1723 117.795 69.2166 114.801C74.4501 113.224 78.6606 113.715 81.1128 119.153C81.0621 119.664 81.0624 119.87 81.0239 120.41C80.6283 126.679 83.0453 129.456 89.2655 130.075C91.4021 131.841 93.2415 133.443 95.1086 135.388C95.2548 136.409 95.3734 137.087 95.1156 137.87C94.1514 139.014 93.5635 140.053 92.6666 140.955C90.2464 139.468 88.1351 138.121 86.0238 136.773C85.9658 136.487 85.8143 136.264 85.2201 135.731C83.6109 134.095 82.4871 132.643 81.0576 131.619C79.1632 130.261 77.0299 129.236 74.9993 128.068Z" fill="#4C2072"/>
<path d="M64.0456 138.972C67.2225 140.803 70.3994 142.634 73.7927 144.731C72.1491 147.461 70.5301 150.167 68.3636 152.322C66.0225 154.651 63.203 156.515 60.4502 158.372C60.2992 158.473 58.8459 156.644 58.3659 155.298C62.0076 154.031 64.4225 152.421 64.3122 148.574C64.2205 145.374 64.1343 142.173 64.0456 138.972Z" fill="#6468AE"/>
<path d="M63.8338 138.763C64.1343 142.173 64.2205 145.374 64.3123 148.574C64.4225 152.421 62.0076 154.031 58.3698 154.937C57.6226 151.98 57.2387 148.968 56.8164 145.542C58.1672 145.563 59.5564 145.997 61.4714 146.596C61.4714 143.81 61.4714 141.181 61.7083 138.289C62.5041 138.202 63.063 138.377 63.8338 138.763Z" fill="#5C4587"/>
<path d="M74.9792 128.428C77.0299 129.236 79.1632 130.261 81.0576 131.619C82.4871 132.643 83.6109 134.095 85.0257 135.662C83.6438 136.004 82.107 136.041 80.3116 135.935C78.355 133.458 76.657 131.123 74.9792 128.428Z" fill="#C2AEAF"/>
<path d="M85.6903 136.84C88.1351 138.12 90.2464 139.468 92.7715 141.223C93.5089 142.305 93.8324 142.981 94.156 143.656C93.6102 144.42 93.0644 145.184 92.162 146.064C91.8054 146.18 91.8408 146.092 91.8563 145.725C90.7811 144.593 89.6904 143.827 88.5998 143.061C87.4421 141.05 83.1749 140.679 85.6903 136.84Z" fill="#DBC3BA"/>
<path d="M73.2049 162.338C73.1851 163.612 72.9142 164.674 72.6433 165.736C71.9016 165.254 71.16 164.771 70.4183 164.289C71.2635 163.568 72.1087 162.846 73.2049 162.338Z" fill="#6D86C5"/>
<path d="M88.7932 143.343C89.6904 143.827 90.781 144.593 91.9035 145.719C90.9524 145.261 89.9695 144.443 88.7932 143.343Z" fill="#E7D8D4"/>
<path d="M27.0891 63.345C28.4752 61.5784 30.0386 60.2308 31.4042 58.7059C34.5041 55.2442 37.3096 58.521 40.856 59.2352C41.3109 61.3323 41.1472 63.1707 40.9834 65.0091C39.825 65.1775 38.6666 65.3458 37.2536 65.7583C33.7249 65.2295 30.4508 64.4565 27.0891 63.345Z" fill="#4A2B72"/>
<path d="M40.9924 65.2662C41.1472 63.1707 41.3109 61.3322 41.2363 59.2482C40.9989 58.2504 40.9999 57.4982 41.0027 56.3698C42.1186 55.7582 43.2326 55.5229 45.0803 55.1456C47.2053 55.0026 48.5967 55.0016 49.9251 55.3421C47.8806 59.1166 45.8992 62.5496 43.9177 65.9826C43.1957 65.9936 42.4737 66.0046 41.3916 66.0264C41.0215 65.8659 41.0115 65.6946 40.9924 65.2662Z" fill="#513778"/>
<path d="M11.4867 78.4774C11.5167 78.4634 11.4567 78.4914 11.4867 78.4774Z" fill="#4C276C"/>
<path d="M20.0654 49.3725C25.7633 49.0138 31.526 48.9458 37.2857 49.0471C40.6791 49.1068 42.792 50.3642 41.0547 54.6334C34.8511 53.9714 28.6873 53.0146 22.5655 51.8392C21.6522 51.6639 20.9361 50.4615 20.0654 49.3725Z" fill="#4E387D"/>
<path d="M49.9881 55.0006C48.5967 55.0016 47.2053 55.0027 45.3956 55.0021C44.9901 54.2647 45.0031 53.5288 45.013 52.4264C46.1851 50.4544 47.3603 48.8489 48.981 46.9532C49.6569 46.4976 49.8126 46.2791 49.8939 46.0073C49.8939 46.0073 49.9335 45.9503 50.252 45.7757C51.0625 44.4105 51.5545 43.2197 52.0466 42.029C52.0466 42.029 52.0306 42.0141 52.0381 42.0321C53.7462 41.6632 55.53 41.4835 57.1283 40.8417C59.678 39.818 60.7812 40.6635 60.9849 43.5796C59.7715 45.7924 58.5503 47.6429 56.7179 49.727C54.0672 51.6406 52.0276 53.3206 49.9881 55.0006Z" fill="#48266D"/>
<path d="M51.7006 42.1049C51.5546 43.2197 51.0625 44.4105 50.27 45.746C50.4311 44.6541 50.8928 43.4174 51.7006 42.1049Z" fill="#6D4C7B"/>
<path d="M49.726 46.1125C49.8127 46.279 49.6569 46.4976 49.2394 46.7401C49.177 46.5804 49.3456 46.3806 49.726 46.1125Z" fill="#6D4C7B"/>
<path d="M52.1998 139.206C52.5674 139.169 53.1027 139.368 53.8001 139.81C53.4307 139.85 52.899 139.646 52.1998 139.206Z" fill="#63478C"/>
<path d="M135.027 72.8094C132.606 72.0264 130.204 70.9987 127.035 69.9776C125.51 69.9741 124.75 69.9639 123.858 69.6971C122.152 69.6246 120.58 69.8088 119.018 69.6041C119.32 67.1944 119.612 65.1736 119.903 63.1528C121.511 61.2868 123.119 59.4209 124.454 57.8727C127.056 59.6057 128.766 60.7444 130.796 61.9091C131.115 61.9353 131.066 61.9616 130.88 62.1767C130.146 62.7233 129.598 63.0548 127.897 64.0827C130.623 64.7669 132.461 65.2281 134.299 65.6893C134.836 67.5302 135.373 69.3712 135.833 71.5768C135.407 72.0203 135.17 72.228 135.027 72.8094Z" fill="#D5AE9D"/>
<path d="M91.0539 56.9089C90.2194 52.1791 95.6507 52.5497 96.6328 49.5356C100.269 51.5915 103.588 53.4683 106.981 55.6956C107.373 57.4465 107.691 58.847 108.004 60.9748C107.702 62.8102 107.406 63.9184 106.797 64.8911C105.577 63.6692 103.918 62.5944 103.901 61.4939C103.841 57.717 101.478 56.1516 98.5261 56.2067C94.47 56.2823 96.5448 59.8984 95.7149 61.8412C93.9715 60.091 92.5127 58.5 91.0539 56.9089Z" fill="#C1B1A8"/>
<path d="M113.995 42.3745C113.808 41.9313 113.847 41.7422 114.21 41.2641C114.716 40.9746 114.9 40.9741 115.455 40.9565C118.55 40.5492 121.272 40.1588 123.957 40.128C123.4 41.7499 122.881 43.0123 122.437 44.0902C123.788 45.2507 124.863 46.1738 126.104 47.4189C126.823 49.8674 127.377 51.9938 127.93 54.1202C124.806 51.3515 121.713 48.5464 118.543 45.8311C117.185 44.6675 115.667 43.6905 113.995 42.3745Z" fill="#847597"/>
<path d="M127.955 54.0928C127.377 51.9938 126.823 49.8674 126.301 47.1571C127.279 45.6874 128.226 44.8016 129.174 43.9158C129.541 44.2081 129.909 44.5003 130.476 44.9098C131.422 47.7623 132.169 50.4973 132.992 53.6127C133.385 57.0869 133.701 60.1808 133.722 63.4827C132.64 63.1144 131.853 62.538 131.066 61.9616C131.066 61.9616 131.115 61.9353 131.133 61.9124C130.174 59.8357 129.197 57.7818 128.226 55.2937C128.289 54.7514 128.422 54.595 128.389 54.5442C128.264 54.3488 128.086 54.1872 127.928 54.0129C127.928 54.0129 127.981 54.0654 127.955 54.0928Z" fill="#AB8887"/>
<path d="M107.11 65.0265C107.406 63.9184 107.702 62.8102 108.012 61.342C110.13 61.9861 112.236 62.9903 114.688 64.4248C115.017 66.2355 115 67.6157 114.624 69.1051C113.84 70.5453 113.61 71.9865 112.937 73.1787C112.152 74.5714 110.982 75.7467 109.822 76.7646C109.154 74.3335 108.641 72.1542 107.954 69.6481C107.556 67.8898 107.333 66.4581 107.11 65.0265Z" fill="#E4C1A7"/>
<path d="M114.982 68.996C115 67.6157 115.017 66.2355 115.045 64.4422C116.485 63.6182 117.915 63.2073 119.624 62.9746C119.612 65.1736 119.32 67.1944 119.016 69.607C119.003 69.9987 119.013 69.9922 118.67 69.9428C117.212 69.5943 116.097 69.2952 114.982 68.996Z" fill="#BD9595"/>
<path d="M127.855 54.2861C128.086 54.1871 128.264 54.3487 128.389 54.5442C128.422 54.595 128.289 54.7513 128.091 54.9794C127.894 54.9194 127.838 54.7393 127.855 54.2861Z" fill="#847597"/>
<path d="M104.697 101.104C104.675 101.491 104.654 101.877 104.323 102.709C102.77 106.506 101.527 109.857 99.9242 113.183C98.7028 114.097 97.8415 115.037 96.6135 115.973C94.4993 114.647 92.7516 113.323 91.004 111.6C90.9996 110.134 90.9952 109.067 91.2332 107.772C91.6347 106.681 91.7938 105.819 91.9559 104.587C91.9744 103.48 91.9898 102.742 92.316 101.943C92.7235 100.92 92.8202 99.9579 92.9292 98.7431C92.9545 98.3214 92.9675 98.1529 93.3371 97.8913C94.1292 96.199 94.5646 94.6 95.0098 92.6082C96.8265 89.026 95.554 84.3392 99.3486 81.7943C100.709 84.9662 101.795 87.5002 102.91 90.4459C103.525 94.2732 104.111 97.6887 104.697 101.104Z" fill="#6D85BC"/>
<path d="M92.0051 102.004C91.9898 102.742 91.9744 103.48 91.6512 104.659C91.2259 106.067 91.1083 107.034 90.9908 108.001C90.9952 109.067 90.9996 110.134 90.8039 111.815C91.0796 113.943 91.5553 115.456 91.6506 116.959C90.2431 116.295 88.4483 115.761 88.3237 114.966C87.826 111.786 87.9625 108.513 87.6316 105.298C87.4441 103.477 91.0235 100.313 85.6234 100.03C84.8645 99.9951 84.4307 99.9755 84.1421 99.7507C84.5594 99.3527 84.8313 99.1599 85.36 98.9373C86.0401 98.6439 86.4634 98.3803 87.1798 97.9392C88.9852 95.5075 90.4976 93.2532 92.1779 90.6735C95.0018 85.5456 95.1601 80.8432 92.0934 76.2084C92.6111 76.0877 92.8184 76.0407 93.4382 76.0109C95.2287 76.0398 96.6067 76.0515 98.2084 76.305C100.211 78.6952 101.991 80.8434 103.77 82.9917C103.855 84.1277 103.94 85.2636 103.992 87.0389C103.6 88.4635 103.241 89.2489 102.882 90.0342C101.795 87.5002 100.709 84.9663 99.3486 81.7943C95.554 84.3392 96.8265 89.026 94.6573 92.7088C93.8569 94.7961 93.4187 96.3903 92.9805 97.9844C92.9675 98.1529 92.9545 98.3214 92.705 98.9775C92.3141 100.311 92.1596 101.158 92.0051 102.004Z" fill="#9E9AA9"/>
<path d="M104.149 83.0023C101.991 80.8434 100.211 78.6952 98.3723 75.9933C98.9022 73.9394 99.4919 72.4391 100.464 70.9529C103.274 70.6363 105.701 70.3056 108.128 69.9749C108.641 72.1542 109.154 74.3335 109.989 77.0358C111.833 77.6964 113.354 77.8341 114.962 78.0029C115.048 78.0341 115.225 78.0837 115.143 78.4162C115.379 80.8208 115.696 82.893 116.013 84.9652C114.013 84.8153 111.989 84.8054 110.019 84.4749C108.159 84.1629 106.356 83.5138 104.149 83.0023Z" fill="#C9B1A5"/>
<path d="M100.284 113.208C101.527 109.857 102.77 106.506 104.319 103C107.912 106.386 111.737 103.331 115.624 103.843C115.964 103.972 116.033 104.03 115.964 104.337C114.986 104.966 113.969 105.128 113.198 105.653C112.33 106.244 111.685 107.162 110.698 108.235C110.285 110.354 110.117 112.175 109.669 114.15C106.253 115.206 103.116 116.108 99.742 117.001C99.5041 116.991 99.028 116.98 99.0127 116.716C98.9851 116.277 98.9728 116.101 99.0952 115.653C99.5814 114.656 99.9328 113.932 100.284 113.208Z" fill="#C9B1A5"/>
<path d="M135.013 113.627C134.863 113.995 134.695 113.997 133.956 113.86C132.268 113.468 131.151 113.216 129.777 112.722C128.365 112.289 127.21 112.098 126.027 111.549C124.971 108.724 123.942 106.257 122.925 103.593C122.938 103.397 123.041 103.016 123.325 102.988C124.073 102.658 124.536 102.355 124.991 101.831C124.984 101.61 124.94 101.168 124.94 101.168C125.71 101.478 126.479 101.789 127.655 102.203C128.628 102.602 129.721 103.025 129.685 103.172C128.673 107.3 131.657 109.005 134.218 111.058C134.734 111.472 134.749 112.51 135.013 113.627Z" fill="#5441B3"/>
<path d="M116.282 85.1706C115.696 82.893 115.379 80.8208 115.461 78.3508C117.223 76.9373 118.585 75.9216 119.954 75.2929C119.655 77.4531 119.349 79.2261 119.044 80.9992C119.69 81.0177 120.336 81.0361 120.981 81.0546C122.815 82.1904 124.648 83.3262 126.255 84.7142C124.85 84.9844 123.673 85.0023 122.205 85.0046C121.272 86.1732 120.63 87.3574 119.987 88.5416C118.841 87.4864 117.696 86.4312 116.282 85.1706Z" fill="#6D6AA5"/>
<path d="M102.91 90.4459C103.241 89.2489 103.6 88.4635 103.981 87.3383C108.645 87.0234 108.329 90.1723 107.681 93.1922C107.14 95.7156 106.127 98.1378 105.01 100.855C104.111 97.6887 103.525 94.2732 102.91 90.4459Z" fill="#C9B1A5"/>
<path d="M119.991 88.85C120.63 87.3574 121.272 86.1732 122.527 85.2582C125.721 85.9675 128.301 86.4076 130.882 86.8477C129.741 87.9002 128.687 89.0756 127.43 89.9647C126.488 90.6317 125.285 90.9305 124.116 91.7704C122.689 91.1512 121.342 90.1549 119.991 88.85Z" fill="#B39299"/>
<path d="M115.93 103.943C113.799 100.681 116.901 99.6261 118.581 98.7337C120.856 97.5255 123.676 96.9842 124.945 100.852C124.94 101.168 124.984 101.61 124.672 101.729C123.915 101.807 123.47 101.766 122.745 101.526C120.321 102.228 118.177 103.129 116.033 104.03C116.033 104.03 115.964 103.972 115.93 103.943Z" fill="#C7B1A5"/>
<path d="M95.0809 135.045C93.2415 133.443 91.4021 131.841 89.3104 129.711C89.0781 128.446 89.098 127.71 89.486 126.974C90.9394 126.577 92.0247 126.18 93.3693 125.81C93.802 125.819 93.9754 125.802 94.4881 125.833C95.5116 125.863 96.1957 125.846 97.1726 125.843C97.6592 125.833 97.853 125.808 98.3582 125.85C99.4126 126.295 100.156 126.675 101.064 127.37C106.869 133.672 114.171 131.506 121.354 131.8C122.467 131.947 123.214 132.009 123.961 132.071C122.512 132.699 121.063 133.327 119.291 134.104C114.317 134.224 109.667 134.197 104.138 134.123C100.533 134.4 97.8071 134.723 95.0809 135.045Z" fill="#6741B9"/>
<path d="M94.4454 143.846C93.8324 142.981 93.5088 142.305 93.0804 141.361C93.5635 140.053 94.1514 139.014 95.2507 137.932C95.7621 137.89 96.0439 137.991 96.0762 138.274C96.3955 138.731 96.6826 138.904 96.9304 139.047C96.8912 139.017 96.8214 139.088 96.8214 139.088C97.5495 143.171 100.145 143.048 103.54 141.98C104.121 145.276 103.881 148.815 109.017 149.668C110.214 150.345 110.934 150.501 111.654 150.658C111.654 150.658 111.868 150.479 111.964 150.988C112.037 152.353 112.014 153.209 111.99 154.065C108.555 153.139 105.12 152.214 101.339 151.159C98.9076 148.698 96.8212 146.366 94.4454 143.846Z" fill="#491877"/>
<path d="M96.0439 137.991C96.0439 137.991 95.7621 137.89 95.627 137.828C95.3734 137.087 95.2549 136.409 95.1086 135.388C97.8071 134.723 100.533 134.4 103.681 134.174C103.777 138.353 100.775 138.795 97.223 139.061C96.8214 139.088 96.8912 139.017 96.8216 138.83C96.5705 138.367 96.3344 138.149 96.0439 137.991Z" fill="#B879C8"/>
<path d="M90.6735 56.9862C92.5127 58.5 93.9715 60.0911 95.8538 62.1671C96.5985 63.7802 96.9198 64.9084 96.84 66.0172C93.5881 65.6805 90.7373 65.3631 87.6037 64.9202C86.5748 64.5104 85.8286 64.2261 84.8951 63.7086C84.1409 63.2949 83.5739 63.1144 83.007 62.9339C82.3982 57.2071 87.4528 58.5095 90.6735 56.9862Z" fill="#F4D0B0"/>
<path d="M72.9886 63.3374C74.4774 62.6639 75.941 62.3254 77.9938 62.2522C79.4749 62.6887 80.367 62.86 81.2591 63.0313C81.2591 63.0313 81.6156 63.0235 81.6468 63.2265C81.3914 63.8727 81.1049 64.316 80.8283 64.7681C80.8383 64.7769 80.8133 64.7867 80.4432 64.7637C79.3306 64.8069 78.588 64.8732 77.6788 64.9216C77.5121 64.9038 77.1779 64.9315 77.0408 64.7844C76.5798 64.7517 76.2558 64.8659 75.5418 64.9914C74.365 65.0034 73.5783 65.0042 72.7915 65.005C72.8488 64.5608 72.9062 64.1166 72.9886 63.3374Z" fill="#E9C3A5"/>
<path d="M80.8184 64.7593C81.1049 64.316 81.3914 63.8727 81.8242 63.208C82.1443 63 82.3182 63.0134 82.7496 62.9804C83.5739 63.1144 84.1409 63.2949 84.558 63.8641C83.2116 64.4216 82.015 64.5905 80.8184 64.7593Z" fill="#7E607E"/>
<path d="M81.0102 62.8193C80.367 62.86 79.4749 62.6887 78.3736 62.2568C78.1645 61.9963 78.5543 62.0098 78.7486 62.01C79.549 62.2092 80.1551 62.4082 81.0102 62.8193Z" fill="#C19F92"/>
<path d="M56.0131 88.0237C55.69 84.5966 55.3668 81.1694 55.411 77.3609C57.2215 75.8847 58.6647 74.7898 60.1078 73.6949C59.8235 73.2471 59.5391 72.7993 59.2548 72.3515C57.7342 72.0453 56.2135 71.739 54.0009 71.2934C54.0009 73.5071 54.0009 75.2482 54.0009 76.9893C52.198 77.413 50.3951 77.8366 48.5146 77.8539C49.2794 74.9598 50.1219 72.4721 51.1424 69.691C52.9037 65.9856 54.487 62.5735 56.0703 59.1615C56.0703 59.1615 56.5317 59.0718 57.0266 58.904C58.0094 58.1531 58.4973 57.57 59.317 56.9154C60.1067 55.9046 60.5645 54.9653 61.0223 54.026C61.0223 54.026 61.0812 53.5576 61.1168 53.325C63.3199 53.7442 65.6888 54.0553 67.5806 55.1736C68.7463 55.8627 69.7669 57.762 69.8187 59.1563C69.9075 61.5506 69.1876 63.9749 68.7739 66.9687C68.1558 68.364 67.571 69.1772 66.9927 69.9953C66.9992 70.0003 66.9966 69.9901 66.7755 70.0974C66.2731 70.3997 66.0858 70.662 65.9954 70.995C65.9981 70.9985 65.9864 70.9888 65.6714 71.0346C64.8628 71.7126 64.3692 72.3448 63.5229 73.102C62.107 78.1637 61.0439 83.1004 59.5838 88.032C58.1289 88.0258 57.071 88.0247 56.0131 88.0237Z" fill="#9197AE"/>
<path d="M66.9862 69.9904C67.571 69.1772 68.1558 68.364 68.8899 67.2882C70.0907 66.378 71.1423 65.7306 72.4927 65.0441C73.5783 65.0042 74.365 65.0034 75.854 64.9866C76.7634 64.9576 76.9707 64.9445 77.1779 64.9315C77.1779 64.9315 77.5121 64.9038 77.865 65.183C79.1202 66.0102 80.0224 66.5582 81.2665 67.315C84.1069 67.6855 86.6055 67.8472 89.4479 68.0202C90.8698 70.6855 91.9478 73.3396 93.0258 75.9936C92.8184 76.0407 92.611 76.0877 91.7572 76.094C86.9981 74.8629 82.8856 73.6725 78.3964 72.4073C75.4639 72.6776 72.9081 73.0228 70.2627 72.9848C69.1108 71.7313 68.0485 70.8608 66.9862 69.9904Z" fill="#C7A497"/>
<path d="M130.88 62.1767C131.853 62.538 132.64 63.1144 133.681 63.8743C134.033 64.4169 134.131 64.776 134.264 65.4122C132.461 65.2281 130.623 64.7669 127.897 64.0827C129.598 63.0548 130.146 62.7233 130.88 62.1767Z" fill="#F2CFAE"/>
<path d="M131.118 86.5804C128.301 86.4076 125.721 85.9675 122.818 85.2738C123.673 85.0023 124.85 84.9844 126.46 84.9783C128.661 82.9133 130.491 80.8848 132.172 78.7395C133.024 77.6517 133.607 76.353 134.663 75.0773C133.794 78.7742 132.574 82.5436 131.118 86.5804Z" fill="#583F8E"/>
<path d="M121.236 80.7754C120.336 81.0361 119.69 81.0176 119.044 80.9992C119.349 79.2261 119.655 77.453 120.001 74.9598C121.358 72.811 122.674 71.3824 123.991 69.9538C124.751 69.964 125.51 69.9741 126.645 70.0449C124.2 73.0486 121.394 76.0002 121.236 80.7754Z" fill="#523D8D"/>
<path d="M112.268 154.232C112.014 153.209 112.037 152.353 112.079 151.067C113.846 151.302 115.595 151.966 117.646 152.83C116.146 153.487 114.346 153.943 112.268 154.232Z" fill="#583191"/>
<path d="M111.389 150.428C110.934 150.501 110.214 150.345 109.32 149.846C109.805 149.735 110.465 149.967 111.389 150.428Z" fill="#583191"/>
<path d="M124.347 132.048C123.214 132.009 122.467 131.947 121.262 131.506C119.057 129.322 117.336 127.884 114.412 128.836C113.561 129.114 112.159 127.701 111.337 126.984C112.439 125.613 113.212 124.321 114.349 123.033C116.414 122.923 119.2 125.084 119.329 121.13C123.041 124.989 127.356 125.383 132.186 124.719C132.403 124.73 132.837 124.71 132.837 124.71C133.41 125.601 133.982 126.492 134.597 127.448C132.095 128.667 129.593 129.887 127.069 131.477C126.277 131.907 125.505 131.966 124.347 132.048Z" fill="#A1AEC2"/>
<path d="M123.994 39.7685C121.272 40.1588 118.55 40.5492 115.472 40.5837C115.07 39.4833 115.022 38.7387 114.975 37.9942C114.975 37.9942 114.996 38.0445 115.255 37.9575C115.789 37.6717 115.99 37.4148 116.118 37.1C118.177 36.7645 120.237 36.4291 122.704 36.1628C124.733 37.7032 126.355 39.1744 127.676 40.8823C126.248 40.6687 125.121 40.2186 123.994 39.7685Z" fill="#513782"/>
<path d="M123.957 40.128C125.121 40.2186 126.248 40.6687 127.724 41.241C128.397 42.0273 128.719 42.6915 129.108 43.6358C128.226 44.8016 127.279 45.6874 126.134 46.8351C124.863 46.1738 123.788 45.2507 122.437 44.0902C122.881 43.0123 123.4 41.7499 123.957 40.128Z" fill="#B28479"/>
<path d="M49.925 55.3421C52.0276 53.3206 54.0672 51.6406 56.4391 49.9056C56.1873 51.6039 55.6031 53.3572 54.6761 55.6637C52.184 60.0952 50.0346 63.9736 47.5834 67.948C46.3235 68.8214 45.3656 69.5989 44.4076 70.3763C44.4009 69.0666 44.3943 67.7568 44.1526 66.2148C45.8992 62.5496 47.8806 59.1166 49.925 55.3421Z" fill="#75668B"/>
<path d="M47.8853 67.852C50.0346 63.9737 52.184 60.0953 54.6084 56.0059C55.1815 56.6972 55.4795 57.5997 55.9239 58.8318C54.487 62.5735 52.9037 65.9855 50.7903 69.6797C49.4686 69.2586 48.6769 68.5553 47.8853 67.852Z" fill="#CAAE9E"/>
<path d="M58.9852 56.9869C58.4973 57.57 58.0094 58.1531 57.2551 58.8488C57.4395 57.7047 57.8904 56.448 58.676 55.4368C59.0022 56.1171 58.9937 56.552 58.9852 56.9869Z" fill="#CAAE9E"/>
<path d="M59.317 56.9154C58.9937 56.552 59.0022 56.1171 59.022 55.3567C59.5211 54.7595 60.0087 54.4878 60.7593 54.1211C60.5644 54.9653 60.1067 55.9046 59.317 56.9154Z" fill="#AEA3A9"/>
<path d="M133.009 124.48C132.837 124.71 132.403 124.73 132.189 124.353C132.605 122.63 133.235 121.282 133.865 119.935C134.197 120.678 134.529 121.422 134.904 122.469C134.358 123.264 133.77 123.757 133.009 124.48Z" fill="#4F2D98"/>
<path d="M133.879 119.627C133.235 121.282 132.605 122.63 131.972 124.343C127.356 125.383 123.041 124.989 119.281 120.782C117.91 118.199 116.91 116.105 115.946 113.669C116.26 112.512 116.538 111.697 117.192 110.958C120.397 111.326 123.225 111.617 126.054 111.907C127.21 112.098 128.365 112.289 129.77 113.131C129.673 116.67 130.683 118.345 133.863 118.083C133.873 118.495 133.883 118.907 133.879 119.627Z" fill="#441D84"/>
<path d="M133.907 117.675C130.683 118.345 129.673 116.67 130.028 113.373C131.151 113.216 132.268 113.468 133.704 113.859C134 115.088 133.976 116.177 133.907 117.675Z" fill="#4F2D98"/>
<path d="M114.678 38.0261C115.022 38.7387 115.07 39.4833 115.101 40.6007C114.9 40.974 114.716 40.9746 114.257 40.9782C114.115 40.0069 114.248 39.0324 114.678 38.0261Z" fill="#9C808D"/>
<path d="M115.828 37.0578C115.99 37.4148 115.789 37.6717 115.282 37.9551C115.019 37.8623 114.988 37.6849 114.955 37.2364C115.149 36.9822 115.343 36.9989 115.828 37.0578Z" fill="#847597"/>
<path d="M46.9306 91.9854C47.4232 91.3717 47.9157 90.7579 48.8567 90.2337C49.8904 89.9276 50.4758 89.5322 51.3846 89.1235C52.1391 89.1284 52.57 89.1466 53.0562 89.4963C56.7376 93.2258 60.3636 96.6237 64.0414 100.309C64.0692 102.393 64.0454 104.189 63.7039 106.056C62.5105 107.16 61.6347 108.193 60.7311 109.258C60.4688 108.909 60.1942 108.691 60.129 108.423C60.0181 107.966 60.0388 107.477 60.2218 106.756C60.9187 102.237 58.2676 101.744 55.1566 101.717C55.7923 100.013 56.6989 98.5527 56.5694 97.1913C56.4982 96.4428 54.6829 95.8602 53.6539 95.2028C53.1131 96.7396 52.4207 98.2461 52.1056 99.8278C51.9783 100.467 52.6752 101.271 53.0051 102.313C53.2304 104.076 53.4477 105.525 53.7403 107.478C54.8523 107.617 56.4233 107.813 57.8658 108.297C57.5598 111.32 60.0915 112.297 64.016 111.269C64.0353 111.709 64.0462 111.884 64.2452 112.301C64.9594 113.363 65.4856 114.184 66.0059 115.002C66 114.999 66.0053 115.01 65.8577 115.103C65.8103 115.458 65.9104 115.72 66.0832 116.326C67.1544 119.069 68.1529 121.467 69.0552 123.96C68.9589 124.054 68.7717 124.247 68.4329 124.177C65.7268 122.076 63.3594 120.046 60.9452 117.679C59.7934 116.376 58.6885 115.411 57.5836 114.446C54.8009 118.31 52.5784 114.239 50.0732 113.509C49.9023 110.372 50.6129 107.128 46.3331 106.859C46.2724 104.887 46.2118 102.914 46.4755 100.449C49.5636 97.3434 48.6225 94.6705 46.9306 91.9854Z" fill="#DABBA5"/>
<path d="M63.9897 100.022C60.3636 96.6237 56.7375 93.2258 53.0687 89.228C53.0307 88.45 53.0355 88.272 53.0403 88.0939C53.7834 88.0786 54.5265 88.0634 55.6414 88.0359C57.071 88.0247 58.1289 88.0258 59.5897 88.0154C59.9925 88.0039 59.9669 88.0118 60.0924 88.2135C60.4252 88.6646 60.6806 88.8464 60.9082 89.2363C62.5542 92.0084 64.2762 94.5048 65.8069 97.2476C65.0736 98.3365 64.5317 99.179 63.9897 100.022Z" fill="#C3AAA2"/>
<path d="M47.5834 67.948C48.677 68.5553 49.4686 69.2586 50.6123 69.9731C50.1219 72.472 49.2794 74.9598 48.2128 77.7187C46.627 78.6443 45.2653 79.2986 43.5593 79.9431C42.9095 79.1802 42.6041 78.427 42.5182 77.3026C43.3105 75.2827 43.8832 73.634 44.4559 71.9853C44.4377 71.6255 44.4195 71.2657 44.4045 70.6412C45.3656 69.5989 46.3236 68.8215 47.5834 67.948Z" fill="#B3A1A0"/>
<path d="M54.2556 76.9896C54.0009 75.2482 54.0009 73.5071 54.0009 71.2934C56.2135 71.739 57.7342 72.0453 59.2548 72.3515C59.5391 72.7993 59.8235 73.2471 60.1078 73.6949C58.6647 74.7898 57.2215 75.8847 55.3991 76.9835C54.85 76.9883 54.6801 76.9891 54.2556 76.9896Z" fill="#A09EAA"/>
<path d="M46.2588 107.246C50.6129 107.128 49.9023 110.372 50.0094 113.562C49.9636 114.023 49.8362 114.125 49.5921 113.955C48.5625 113.19 47.7769 112.594 46.9914 111.999C46.9914 111.999 47.0011 111.999 47.012 111.699C46.6877 110.932 46.3525 110.465 46.0172 109.998C46.0172 109.998 45.9991 109.999 46.0053 109.991C46.0692 109.199 46.1268 108.416 46.2588 107.246Z" fill="#B9AAA6"/>
<path d="M46.6903 92.3022C48.6225 94.6705 49.5636 97.3434 46.5123 100.025C46.2998 97.6032 46.3749 95.1111 46.6903 92.3022Z" fill="#B9AAA6"/>
<path d="M52.8397 87.8523C53.0355 88.272 53.0307 88.45 53.0135 88.8964C52.57 89.1466 52.1391 89.1284 51.1033 89.046C50.3116 88.9303 50.1245 88.8789 49.9375 88.8274C50.838 88.4218 51.7385 88.0162 52.8397 87.8523Z" fill="#9197AE"/>
<path d="M49.7445 88.978C50.1245 88.8788 50.3115 88.9303 50.7798 89.0592C50.4757 89.5322 49.8904 89.9276 49.1329 90.1103C49.1023 89.5987 49.2993 89.3423 49.7445 88.978Z" fill="#C3AAA2"/>
<path d="M60.9921 118.016C63.3594 120.046 65.7268 122.076 68.5866 124.365C69.3043 124.873 69.5809 125.035 69.9809 125.223C70.1464 125.365 70.2398 125.393 70.3333 125.421C70.2457 125.262 70.1581 125.102 69.9628 124.727C69.6628 124.251 69.4282 124.036 69.1514 123.866C68.1529 121.467 67.1544 119.069 66.0822 116.083C66.0086 115.496 66.0052 115.01 66.0052 115.01C66.0052 115.01 66 114.999 66.3638 115C67.4425 115.008 68.1575 115.016 68.8724 115.023C70.1723 117.795 71.4721 120.567 72.6691 123.899C73.0247 125.961 73.4832 127.463 73.9417 128.964C71.6838 128.827 69.3357 129.035 67.189 128.473C63.9292 127.62 60.8092 126.233 57.2349 125.11C56.84 125.147 56.8739 125.074 56.7735 124.824C56.3365 124.403 55.9998 124.232 55.6632 124.062C55.4399 123.966 55.2515 123.824 55.0294 123.117C54.9767 122.352 54.9926 122.107 55.1337 121.609C55.7593 120.746 56.2597 120.136 56.7601 119.526C59.4954 122.735 59.7618 119.025 60.9921 118.016Z" fill="#9D9BAE"/>
<path d="M60.9452 117.678C59.7618 119.025 59.4954 122.735 56.7601 119.526C56.2597 120.136 55.7594 120.746 54.8788 121.493C53.9794 121.429 53.4602 121.228 52.941 121.027C52.941 121.027 52.9879 120.994 52.8828 120.745C52.4446 120.305 52.1115 120.113 51.7785 119.921C51.582 119.749 51.4264 119.546 51.2094 118.828C50.7296 117.898 50.3522 117.453 49.9747 117.007C49.9747 117.007 50.0018 117 50.0196 116.647C49.9703 115.571 49.9032 114.848 49.8362 114.125C49.8362 114.125 49.9636 114.023 50.0274 113.97C52.5784 114.239 54.8009 118.31 57.5836 114.446C58.6885 115.411 59.7934 116.376 60.9452 117.678Z" fill="#B9AAA6"/>
<path d="M49.5921 113.955C49.9032 114.848 49.9703 115.571 50.0099 116.657C48.984 115.577 47.9855 114.133 46.9891 112.344C47.7769 112.594 48.5624 113.19 49.5921 113.955Z" fill="#7C8CB6"/>
<path d="M52.9743 121.349C53.4601 121.228 53.9793 121.429 54.7535 121.746C54.9926 122.107 54.9767 122.352 54.9326 122.967C54.2721 122.781 53.6399 122.226 52.9743 121.349Z" fill="#6B80BE"/>
<path d="M46.0016 110.302C46.3525 110.465 46.6877 110.932 47.0106 111.704C46.6609 111.541 46.3235 111.074 46.0016 110.302Z" fill="#7C8CB6"/>
<path d="M49.9874 117.314C50.3521 117.453 50.7296 117.898 51.1305 118.652C50.7693 118.513 50.3847 118.067 49.9874 117.314Z" fill="#7C8CB6"/>
<path d="M51.9024 120.185C52.1115 120.113 52.4446 120.305 52.8791 120.774C52.6624 120.851 52.3444 120.65 51.9024 120.185Z" fill="#6B80BE"/>
<path d="M55.8198 124.303C55.9998 124.232 56.3364 124.403 56.8135 124.823C56.6281 124.896 56.3022 124.72 55.8198 124.303Z" fill="#6B80BE"/>
<path d="M57.9395 136.594C55.0258 139.501 54.7907 136.241 53.4725 135.337C53.7381 134.826 54.0037 134.315 54.2694 133.804C55.4928 134.619 56.7161 135.435 57.9395 136.594Z" fill="#4F2D70"/>
<path d="M44.1089 72.0861C43.8832 73.634 43.3105 75.2827 42.4133 77.0128C42.6465 75.4584 43.2042 73.8227 44.1089 72.0861Z" fill="#75668B"/>
<path d="M73.982 128.684C73.4832 127.463 73.0247 125.961 72.8215 124.208C73.3914 125.022 73.706 126.088 74.071 127.5C74.0883 128.033 74.0553 128.219 73.982 128.684Z" fill="#B6A0A7"/>
<path d="M69.2165 114.801C68.1575 115.016 67.4425 115.008 66.3696 115.003C65.4855 114.184 64.9594 113.363 64.6295 112.302C67.8859 111.718 70.9461 111.375 74.3867 111.027C80.7952 109.707 83.9917 105.507 85.9484 100.045C91.0235 100.313 87.4441 103.477 87.6315 105.298C87.9624 108.513 87.8259 111.786 88.3237 114.966C88.4482 115.761 90.243 116.295 91.958 117.119C93.7633 117.522 94.8807 117.756 95.7569 118.231C91.5808 118.763 91.3928 121.352 91.5805 124.215C87.896 122.324 84.5299 120.586 81.1637 118.847C78.6606 113.715 74.4501 113.224 69.2165 114.801Z" fill="#B6A0A7"/>
<path d="M89.1179 126.974C89.0979 127.71 89.078 128.446 89.0132 129.547C83.0453 129.455 80.6283 126.679 81.353 120.506C84.1865 122.504 86.6522 124.739 89.1179 126.974Z" fill="#E0D5D7"/>
<path d="M89.4859 126.974C86.6522 124.739 84.1865 122.504 81.3917 120.173C81.0624 119.87 81.0621 119.664 81.1128 119.153C84.5299 120.586 87.896 122.324 91.7306 124.39C92.5026 125.073 92.8063 125.428 93.11 125.783C92.0247 126.18 90.9393 126.577 89.4859 126.974Z" fill="#704AA0"/>
<path d="M123.858 69.6971C122.674 71.3824 121.358 72.811 119.995 74.5727C118.585 75.9216 117.223 76.9373 115.543 78.0184C115.225 78.0837 115.048 78.0341 114.907 77.7121C116.182 74.9241 117.597 72.4581 119.013 69.9921C119.013 69.9921 119.003 69.9987 119.005 69.9958C120.58 69.8088 122.152 69.6246 123.858 69.6971Z" fill="#BD9595"/>
<path d="M97.2411 66.0366C96.9198 64.9084 96.5985 63.7803 96.1383 62.3262C96.5448 59.8984 94.47 56.2824 98.5261 56.2067C101.478 56.1517 103.841 57.7171 103.9 61.494C103.918 62.5944 105.577 63.6692 106.797 64.8911C107.333 66.4581 107.556 67.8898 107.954 69.6482C105.701 70.3056 103.274 70.6363 100.307 70.6642C98.9242 68.9199 98.0826 67.4782 97.2411 66.0366Z" fill="#A6A1A9"/>
<path d="M106.488 59.4821C106.518 59.4684 106.459 59.4958 106.488 59.4821Z" fill="#A6A1A9"/>
<path d="M118.67 69.9428C117.597 72.4581 116.182 74.9241 114.821 77.6809C113.354 77.8341 111.833 77.6965 110.145 77.2876C110.982 75.7467 112.152 74.5714 112.937 73.1787C113.61 71.9865 113.84 70.5453 114.624 69.1051C116.097 69.2952 117.212 69.5943 118.67 69.9428Z" fill="#DFB69E"/>
<path d="M95.9981 117.99C94.8807 117.756 93.7633 117.522 92.3384 117.128C91.5553 115.456 91.0795 113.943 90.8038 112.215C92.7515 113.323 94.4992 114.647 96.6398 116.008C97.0328 116.046 97.0847 116.115 96.9474 116.348C96.5394 117.05 96.2687 117.52 95.9981 117.99Z" fill="#878DB4"/>
<path d="M93.3371 97.8913C93.4187 96.3903 93.8569 94.7961 94.6476 93.1014C94.5646 94.6 94.1292 96.199 93.3371 97.8913Z" fill="#828FB4"/>
<path d="M99.9242 113.183C99.9328 113.932 99.5814 114.656 98.867 115.681C98.5039 115.981 98.0517 116.068 97.8096 116.073C97.5676 116.078 97.0848 116.115 97.0848 116.115C97.0848 116.115 97.0329 116.046 97.0065 116.011C97.8415 115.037 98.7029 114.097 99.9242 113.183Z" fill="#878DB4"/>
<path d="M92.3159 101.943C92.1596 101.158 92.3141 100.311 92.6927 99.2307C92.8202 99.9579 92.7235 100.92 92.3159 101.943Z" fill="#828FB4"/>
<path d="M91.2332 107.772C91.1083 107.034 91.2258 106.067 91.6481 105.029C91.7938 105.819 91.6347 106.681 91.2332 107.772Z" fill="#828FB4"/>
<path d="M78.773 72.4821C82.8856 73.6725 86.9981 74.8629 91.4469 76.1677C95.16 80.8432 95.0018 85.5456 91.8502 90.5284C89.395 91.0159 87.303 90.9977 85.514 91.7249C83.8459 92.4029 82.4999 93.8735 81.0088 94.6049C80.9992 93.1763 80.993 92.1381 81.2825 90.8983C83.0421 87.4466 84.506 84.1965 86.3029 81.0654C88.0108 82.99 89.3857 84.7955 90.7606 86.6011C91.1376 86.275 91.5146 85.9491 91.8915 85.623C90.9969 77.948 85.5038 74.9163 78.7922 72.9386C78.767 72.7878 78.773 72.4821 78.773 72.4821Z" fill="#7369AA"/>
<path d="M96.8401 66.0172C98.0827 67.4782 98.9242 68.9199 99.9237 70.6501C99.4919 72.4391 98.9023 73.9394 98.1487 75.7514C96.6067 76.0515 95.2287 76.0398 93.4382 76.0109C91.9478 73.3396 90.8698 70.6856 89.3934 67.6974C88.6255 66.5907 88.256 65.8182 87.8866 65.0458C90.7374 65.3631 93.5882 65.6805 96.8401 66.0172Z" fill="#ECC5A6"/>
<path d="M81.0122 94.9951C82.5 93.8734 83.8459 92.4029 85.514 91.7249C87.303 90.9977 89.395 91.0158 91.6824 90.8538C90.4976 93.2532 88.9852 95.5075 86.8887 97.9328C85.9167 98.1431 85.5288 98.1823 84.7382 98.1775C80.8821 98.4343 77.4286 98.7352 73.6565 99.0204C72.9128 98.9808 72.4877 98.957 72.0435 98.5683C72.0112 97.4713 71.998 96.7392 72.3979 96.0002C75.5448 95.6605 78.2785 95.3278 81.0122 94.9951Z" fill="#7872B0"/>
<path d="M85.6234 100.03C83.9917 105.507 80.7952 109.707 74.1861 110.794C72.74 110.058 71.875 109.55 71.0078 108.664C71.0009 107.529 70.9963 106.772 71.378 106.001C73.8407 105.317 75.9169 104.647 78.2987 103.835C80.4018 102.446 82.1993 101.201 83.9968 99.9559C84.4307 99.9755 84.8645 99.9951 85.6234 100.03Z" fill="#D7BAA4"/>
<path d="M84.1421 99.7508C82.1993 101.201 80.4018 102.446 78.0458 103.629C76.3166 102.056 75.1458 100.546 73.9751 99.0362C77.4286 98.7353 80.8821 98.4343 84.7192 98.3623C85.1029 98.5913 85.1032 98.967 85.1032 98.967C84.8313 99.1599 84.5593 99.3527 84.1421 99.7508Z" fill="#958DA8"/>
<path d="M85.3599 98.9373C85.1032 98.967 85.1029 98.5913 85.1219 98.4064C85.5288 98.1824 85.9167 98.1431 86.5957 98.1103C86.4634 98.3803 86.04 98.6439 85.3599 98.9373Z" fill="#B6A0A7"/>
<path d="M99.9799 117.01C103.116 116.108 106.253 115.206 109.944 114.351C114.608 116.179 113.571 119.032 111.657 121.986C107.492 121.993 103.748 121.993 100.001 121.578C99.9922 119.779 99.986 118.395 99.9799 117.01Z" fill="#C0A3A2"/>
<path d="M116.815 110.882C116.538 111.697 116.26 112.512 115.599 113.606C113.792 111.903 112.367 109.92 110.943 107.937C111.685 107.162 112.33 106.244 113.198 105.653C113.969 105.128 114.986 104.966 115.964 104.337C118.177 103.129 120.321 102.228 122.745 101.85C123.03 102.587 123.035 102.801 123.041 103.016C123.041 103.016 122.938 103.397 122.581 103.66C120.421 106.243 118.618 108.563 116.815 110.882Z" fill="#8992B6"/>
<path d="M110.698 108.235C112.367 109.92 113.792 111.903 115.564 113.948C116.91 116.105 117.91 118.199 118.957 120.641C119.2 125.084 116.414 122.923 114.103 122.913C113.022 122.521 112.55 122.25 112.077 121.98C113.571 119.032 114.608 116.179 110.224 114.197C110.117 112.176 110.285 110.354 110.698 108.235Z" fill="#9A99B4"/>
<path d="M99.742 117.001C99.986 118.395 99.9922 119.779 99.7169 121.744C98.9726 123.478 98.5097 124.631 98.0469 125.784C97.853 125.808 97.6591 125.833 96.9964 125.638C95.7346 125.542 94.9417 125.664 94.1487 125.785C93.9753 125.802 93.802 125.819 93.3693 125.81C92.8063 125.428 92.5026 125.073 92.0488 124.543C91.3928 121.352 91.5808 118.763 95.7568 118.231C96.2688 117.52 96.5394 117.05 96.9474 116.348C97.0847 116.115 97.5675 116.078 97.9289 116.266C98.4889 116.696 98.7348 116.871 99.0279 116.98C99.0279 116.98 99.504 116.991 99.742 117.001Z" fill="#B29EAB"/>
<path d="M99.0126 116.716C98.7348 116.871 98.4889 116.696 98.171 116.261C98.0516 116.068 98.5038 115.981 98.7321 115.954C98.9727 116.101 98.985 116.277 99.0126 116.716Z" fill="#C0A3A2"/>
<path d="M117.192 110.958C118.618 108.563 120.421 106.243 122.568 103.857C123.942 106.257 124.971 108.724 126.027 111.549C123.225 111.617 120.397 111.326 117.192 110.958Z" fill="#4C2E9E"/>
<path d="M123.325 102.988C123.035 102.801 123.03 102.587 123.025 102.049C123.47 101.766 123.915 101.807 124.679 101.951C124.536 102.355 124.073 102.658 123.325 102.988Z" fill="#6054BC"/>
<path d="M98.3582 125.85C98.5098 124.631 98.9726 123.478 99.7199 122.159C103.748 121.993 107.492 121.993 111.657 121.986C112.55 122.25 113.022 122.521 113.74 122.911C113.212 124.321 112.439 125.613 110.88 126.966C107.03 127.036 103.964 127.045 100.899 127.054C100.156 126.675 99.4126 126.295 98.3582 125.85Z" fill="#BCB5B7"/>
<path d="M101.064 127.37C103.964 127.045 107.03 127.036 110.553 127.045C112.159 127.701 113.561 129.114 114.412 128.836C117.336 127.884 119.057 129.322 120.897 131.42C114.171 131.506 106.869 133.672 101.064 127.37Z" fill="#ABA7B7"/>
<path d="M94.488 125.833C94.9417 125.664 95.7346 125.542 96.7037 125.624C96.1957 125.846 95.5115 125.863 94.488 125.833Z" fill="#CAB8B4"/>
<path d="M96.0762 138.274C96.3344 138.149 96.5704 138.367 96.8608 138.861C96.6826 138.904 96.3955 138.731 96.0762 138.274Z" fill="#D78BC5"/>
<path d="M87.6038 64.9202C88.256 65.8182 88.6254 66.5907 89.0495 67.686C86.6055 67.8472 84.1069 67.6855 81.2797 66.9272C80.9052 65.8159 80.8593 65.3013 80.8134 64.7867C80.8134 64.7867 80.8383 64.7769 80.8284 64.7681C82.015 64.5905 83.2116 64.4216 84.7454 64.0973C85.8287 64.2261 86.5748 64.5104 87.6038 64.9202Z" fill="#634479"/>
<path d="M80.4432 64.7637C80.8592 65.3013 80.9051 65.8159 80.9378 66.7184C80.0224 66.5582 79.1201 66.0102 78.0317 65.2009C78.588 64.8732 79.3305 64.8069 80.4432 64.7637Z" fill="#7E607E"/>
<path d="M77.0409 64.7845C76.9707 64.9446 76.7634 64.9576 76.244 64.9754C76.2558 64.866 76.5798 64.7517 77.0409 64.7845Z" fill="#C19F92"/>
<path d="M65.9982 97.0012C64.2763 94.5048 62.5543 92.0084 60.9165 89.254C61.0008 88.9961 60.9667 89.0005 61.1072 88.9132C61.4621 88.5167 61.3973 88.253 60.7819 88.0253C60.3293 88.0146 60.1481 88.0132 59.967 88.0118C59.967 88.0118 59.9926 88.004 59.9867 88.0206C61.0439 83.1004 62.107 78.1637 63.6041 73.3687C64.6875 72.6699 65.337 71.8293 65.9865 70.9888C65.9865 70.9888 65.9982 70.9985 66.2117 70.8824C66.6959 70.5666 66.8863 70.3078 66.9966 69.9901C66.9966 69.9901 66.9993 70.0003 66.9927 69.9953C68.0485 70.8609 69.1108 71.7313 70.1769 72.9322C70.1806 73.2626 70.1996 73.0674 70.0349 73.1314C69.7937 73.282 69.6351 73.4079 69.6545 73.4484C69.7506 73.6488 69.8937 73.8265 69.9796 74.2423C69.939 74.4724 69.8401 74.9291 69.5463 75.0738C67.4755 77.4789 65.6985 79.7392 63.6841 82.2328C64.624 85.3343 65.8012 88.2026 67.0269 91.4037C66.2995 93.8285 71.5346 95.9101 66.9399 97.805C66.5285 97.4015 66.2633 97.2014 65.9982 97.0012Z" fill="#A7909C"/>
<path d="M65.6714 71.0345C65.3369 71.8293 64.6874 72.6699 63.9568 73.2437C64.3692 72.3448 64.8628 71.7126 65.6714 71.0345Z" fill="#C7A497"/>
<path d="M66.7755 70.0974C66.8863 70.3078 66.6959 70.5665 66.209 70.8789C66.0858 70.662 66.2731 70.3997 66.7755 70.0974Z" fill="#C7A497"/>
<path d="M69.8401 74.929C69.8401 74.929 69.9389 74.4724 70.1326 74.0266C70.284 73.4097 70.2418 73.2385 70.1996 73.0674C70.1996 73.0674 70.1806 73.2625 70.2664 73.3152C72.9081 73.0228 75.4639 72.6776 78.3964 72.4073C78.7731 72.4821 78.767 72.7878 78.5872 73.1953C78.3065 74.4751 78.2057 75.3474 77.9292 76.4878C77.0139 78.0597 76.2741 79.3635 75.5343 80.6673C76.9918 81.4281 78.4493 82.1889 80.2523 82.9206C81.3895 81.9104 82.1811 80.9293 83.0203 79.7175C83.0677 79.4869 83.1947 79.0334 83.4899 79.0732C84.5134 79.7241 85.2416 80.3352 85.9698 80.9464C84.506 84.1965 83.0422 87.4466 80.861 90.8721C76.5604 90.9174 72.7412 91.3315 70.9566 86.7272C70.4122 85.359 69.862 84.3276 69.3448 83.3582C73.9051 80.8862 71.0011 77.8414 69.8401 74.929Z" fill="#461F76"/>
<path d="M70.9916 106.016C70.9962 106.772 71.0009 107.529 70.6034 108.653C68.1367 109.682 66.0721 110.343 64.0075 111.005C60.0915 112.297 57.5597 111.32 58.0544 108.072C58.9158 107.375 59.46 107.188 60.0042 107.001C60.0388 107.477 60.018 107.966 60.129 108.423C60.1941 108.691 60.4688 108.909 60.7311 109.258C61.6347 108.193 62.5105 107.16 64.1216 106.059C66.2522 105.958 67.6472 105.926 69.3663 105.925C70.1241 105.976 70.5578 105.996 70.9916 106.016Z" fill="#E7C3A6"/>
<path d="M60.2218 106.756C59.46 107.188 58.9158 107.375 58.183 107.785C56.4233 107.813 54.8523 107.617 53.7403 107.478C53.4476 105.525 53.2304 104.076 53.3382 102.314C54.1072 102.001 54.5512 102.002 54.9951 102.002C58.2676 101.744 60.9186 102.237 60.2218 106.756Z" fill="#E9C4A7"/>
<path d="M69.0423 105.894C67.6472 105.926 66.2521 105.958 64.4393 105.987C64.0453 104.189 64.0692 102.393 64.0414 100.309C64.5316 99.179 65.0736 98.3365 65.8069 97.2476C66.2633 97.2014 66.5284 97.4015 66.9343 98.0591C67.0665 98.6856 67.0579 98.8547 66.9027 99.1125C66.8693 99.4445 66.9823 99.6878 67.3353 99.8052C68.0616 99.44 68.5481 99.2006 69.0254 99.3975C69.025 101.854 69.0337 103.874 69.0423 105.894Z" fill="#C0ACA4"/>
<path d="M55.1566 101.717C54.5511 102.002 54.1072 102.001 53.3301 102C52.6751 101.271 51.9782 100.467 52.1056 99.8278C52.4206 98.2461 53.1131 96.7396 53.6539 95.2028C54.6828 95.8602 56.4982 96.4428 56.5694 97.1913C56.6989 98.5527 55.7923 100.013 55.1566 101.717Z" fill="#E7C1A6"/>
<path d="M64.0159 111.269C66.0721 110.343 68.1367 109.682 70.6057 109.031C71.875 109.55 72.7399 110.058 73.8056 110.799C70.9461 111.375 67.8859 111.718 64.4415 112.061C64.0462 111.884 64.0353 111.709 64.0159 111.269Z" fill="#D0ABA8"/>
<path d="M65.8577 115.103C66.0052 115.01 66.0086 115.496 66.0095 115.739C65.9104 115.72 65.8102 115.458 65.8577 115.103Z" fill="#B6A0A7"/>
<path d="M60.0924 88.2135C60.1481 88.0132 60.3292 88.0146 60.758 88.2663C61.0056 88.5167 60.9666 89.0005 60.9666 89.0005C60.9666 89.0005 61.0008 88.9961 60.9925 88.9783C60.6806 88.8464 60.4252 88.6646 60.0924 88.2135Z" fill="#9197AE"/>
<path d="M69.0552 123.96C69.4282 124.036 69.6628 124.251 69.9207 124.768C69.9864 125.022 69.9089 125.109 69.9089 125.109C69.5809 125.035 69.3043 124.873 68.9254 124.435C68.7717 124.247 68.9589 124.054 69.0552 123.96Z" fill="#DABBA5"/>
<path d="M70.0285 124.982C70.1581 125.102 70.2457 125.262 70.3333 125.421C70.2398 125.393 70.1463 125.365 69.9809 125.223C69.9089 125.109 69.9864 125.022 70.0285 124.982Z" fill="#DABBA5"/>
<path d="M70.9508 87.064C72.7412 91.3315 76.5604 90.9174 80.5652 91.0737C80.993 92.1381 80.9992 93.1763 81.0089 94.6049C78.2785 95.3278 75.5448 95.6606 72.1386 95.7919C69.9703 94.084 68.4744 92.5775 66.9784 91.0709C65.8012 88.2026 64.624 85.3343 64.0046 82.3556C66.6918 83.8515 68.8213 85.4578 70.9508 87.064Z" fill="#6E68B1"/>
<path d="M78.1048 76.2196C78.2057 75.3474 78.3065 74.4751 78.6124 73.3461C85.5038 74.9163 90.9969 77.948 91.8916 85.623C91.5146 85.949 91.1376 86.275 90.7607 86.601C89.3857 84.7955 88.0109 82.99 86.3029 81.0654C85.2416 80.3353 84.5134 79.7241 83.3771 78.7229C81.3475 77.6285 79.7262 76.924 78.1048 76.2196Z" fill="#4B2885"/>
<path d="M69.3663 105.925C69.0337 103.874 69.025 101.854 69.4027 99.4023C70.5469 98.9583 71.3047 98.9457 72.0626 98.9332C72.4877 98.957 72.9128 98.9808 73.6565 99.0204C75.1459 100.546 76.3166 102.056 77.7402 103.772C75.9168 104.647 73.8406 105.317 71.378 106.001C70.5578 105.996 70.1241 105.976 69.3663 105.925Z" fill="#AFA5A6"/>
<path d="M72.0435 98.5683C71.3047 98.9457 70.5469 98.9583 69.4118 98.966C68.5481 99.2006 68.0617 99.4399 67.3191 99.5789C67.0628 99.4786 67.0493 99.0238 67.0493 99.0238C67.0579 98.8547 67.0665 98.6856 67.0807 98.2624C71.5346 95.91 66.2995 93.8285 67.0269 91.4037C68.4744 92.5775 69.9703 94.084 71.7255 95.7988C71.998 96.7392 72.0112 97.4713 72.0435 98.5683Z" fill="#958DA8"/>
<path d="M70.9566 86.7272C68.8213 85.4578 66.6918 83.8515 64.2419 82.1224C65.6984 79.7392 67.4755 77.4789 69.5463 75.0738C71.0011 77.8414 73.9051 80.8862 69.3448 83.3582C69.862 84.3276 70.4122 85.359 70.9566 86.7272Z" fill="#4B2885"/>
<path d="M70.0348 73.1314C70.2418 73.2385 70.284 73.4097 70.1732 73.7966C69.8937 73.8265 69.7506 73.6488 69.6545 73.4484C69.6351 73.4079 69.7936 73.282 70.0348 73.1314Z" fill="#C7A497"/>
<path d="M61.1072 88.9131C60.9667 89.0005 61.0056 88.5167 61.0295 88.2757C61.3973 88.2529 61.4621 88.5167 61.1072 88.9131Z" fill="#C3AAA2"/>
<path d="M77.9292 76.4878C79.7261 76.924 81.3475 77.6285 83.0817 78.6832C83.1946 79.0334 83.0677 79.4869 82.6926 79.7742C81.5139 81.0242 80.7104 81.9869 79.9068 82.9496C78.4493 82.1889 76.9918 81.4281 75.5343 80.6673C76.2741 79.3635 77.0138 78.0597 77.9292 76.4878Z" fill="#5B72C6"/>
<path d="M80.2523 82.9206C80.7104 81.9869 81.514 81.0242 82.6452 80.0048C82.1811 80.9293 81.3895 81.9105 80.2523 82.9206Z" fill="#4B2885"/>
<path d="M66.9027 99.1125C67.0492 99.0239 67.0628 99.4786 67.0791 99.7049C66.9823 99.6878 66.8693 99.4444 66.9027 99.1125Z" fill="#AFA5A6"/>
</g>
<defs>
<clipPath id="clip0_2_23">
<rect width="169" height="172" fill="white"/>
</clipPath>
</defs>
</svg>
