<svg width="57" height="56" viewBox="0 0 57 56" fill="none" xmlns="http://www.w3.org/2000/svg">
<path fill-rule="evenodd" clip-rule="evenodd" d="M56.6447 28C56.6447 43.5083 44.153 56 28.6447 56C13.1363 56 0.644653 43.5083 0.644653 28C0.644653 12.4917 13.1363 0 28.6447 0C44.153 0 56.6447 12.4917 56.6447 28ZM22.8648 14.8443C28.5565 12.4255 32.3196 8.46236 31.2699 5.99239C30.2203 3.52242 24.7553 3.48095 19.0636 5.89976C13.372 8.31858 9.60886 12.2817 10.6585 14.7517C11.7082 17.2217 17.1732 17.2631 22.8648 14.8443ZM24.5183 51.6278C30.607 52.7108 35.9239 51.4467 36.3939 48.8044C36.8638 46.1621 32.3089 43.1422 26.2201 42.0592C20.1314 40.9763 14.8145 42.2404 14.3445 44.8827C13.8745 47.525 18.4295 50.5449 24.5183 51.6278ZM48.4017 35.3261C49.8287 36.7301 48.6924 40.1989 45.8638 43.0739C43.0351 45.949 39.5852 47.1415 38.1582 45.7375C36.7312 44.3335 37.8674 40.8646 40.6961 37.9896C43.5247 35.1146 46.9747 33.9221 48.4017 35.3261ZM38.7461 14.2081C42.5771 17.0736 46.6908 18.0488 47.9343 16.3863C49.1778 14.7238 47.0802 11.0531 43.2492 8.1876C39.4183 5.32209 35.3046 4.34687 34.061 6.00938C32.8175 7.67189 34.9151 11.3426 38.7461 14.2081ZM8.77428 17.7005C11.6903 17.3502 14.7086 22.5133 15.516 29.2327C16.3233 35.9522 14.6139 41.6834 11.6979 42.0337C8.78196 42.3841 5.76361 37.2209 4.95627 30.5015C4.14892 23.7821 5.85831 18.0509 8.77428 17.7005Z" fill="white"/>
</svg>
