<?xml version="1.0" encoding="UTF-8"?>
<svg width="330px" height="175px" viewBox="0 0 330 175" version="1.1" xmlns="http://www.w3.org/2000/svg" xmlns:xlink="http://www.w3.org/1999/xlink">
    <title>fa_vertical_text_purple_orange</title>
    <g id="fa_vertical_text_purple_orange" stroke="none" stroke-width="1" fill="none" fill-rule="evenodd">
        <g id="logo-all-white-vertical" transform="translate(14, 12)" fill-rule="nonzero">
            <polygon id="Path" fill="#1E293B" points="0 105.13 28.77 105.13 28.77 112.3 7.93 112.3 7.93 124 27.57 124 27.57 131.18 7.93 131.18 7.93 149.68 0 149.68"></polygon>
            <path d="M58.98,149.69 L51.77,149.69 L51.77,144.84 L51.64,144.84 C50.8928812,146.403725 49.7692841,147.757539 48.37,148.78 C46.6082579,149.981744 44.4992776,150.568743 42.37,150.45 C40.60765,150.493405 38.8570174,150.152151 37.24,149.45 C35.9029836,148.855303 34.7271099,147.950257 33.81,146.81 C32.9439215,145.679704 32.3208815,144.382556 31.98,143 C31.5962671,141.541158 31.4046476,140.038457 31.4098909,138.53 L31.4098909,119.48 L38.97,119.48 L38.97,134.77 C38.97,135.61 38.97,136.55 39.09,137.57 C39.1711519,138.563106 39.393385,139.539585 39.75,140.47 C40.0940335,141.3542 40.6586082,142.135654 41.39,142.74 C42.2890948,143.396181 43.389001,143.718019 44.5,143.65 C45.59408,143.684114 46.6815657,143.468669 47.68,143.02 C48.512731,142.622486 49.2444275,142.041231 49.82,141.32 C50.3974453,140.594991 50.8164599,139.756962 51.05,138.86 C51.3043072,137.917789 51.4320955,136.945925 51.43,135.97 L51.43,119.48 L58.98,119.48 L58.98,149.69 Z" id="Path" fill="#1E293B"></path>
            <path d="M82.33,127.85 C81.0203047,125.874598 78.7895652,124.708272 76.42,124.76 C75.3726775,124.762458 74.3421704,125.02352 73.42,125.52 C72.490261,125.983917 71.9331552,126.963791 72.01,128 C71.9716974,128.84725 72.4444014,129.63509 73.21,130 C74.1616332,130.479987 75.1694091,130.839427 76.21,131.07 C77.43,131.36 78.74,131.67 80.14,131.98 C81.5122581,132.284994 82.8374065,132.772676 84.08,133.43 C85.2771515,134.07454 86.3050753,134.992818 87.08,136.11 C87.9432629,137.501662 88.3586299,139.124735 88.27,140.76 C88.3269936,142.362778 87.9245075,143.948435 87.11,145.33 C86.3550737,146.548241 85.3282411,147.575074 84.11,148.33 C82.8145939,149.104397 81.3981728,149.655415 79.92,149.96 C78.3896787,150.298009 76.8272052,150.469009 75.26,150.47 C73.0596963,150.495409 70.8702812,150.157537 68.78,149.47 C66.7260937,148.740243 64.9012656,147.481146 63.49,145.82 L68.49,141.1 C69.3915476,142.140091 70.4431033,143.03998 71.61,143.77 C72.8401251,144.484067 74.2489545,144.83107 75.67,144.77 C76.2385976,144.768854 76.8053423,144.705137 77.36,144.58 C77.9386052,144.465101 78.4932786,144.252025 79,143.95 C79.4819964,143.672806 79.9009088,143.298169 80.23,142.85 C80.5456723,142.399331 80.7102325,141.860134 80.7,141.31 C80.7580337,140.371939 80.2973805,139.477504 79.5,138.98 C78.5677306,138.421097 77.5562926,138.006407 76.5,137.75 C75.29,137.44 73.97,137.15 72.57,136.87 C71.204922,136.61516 69.8821381,136.170866 68.64,135.55 C67.4503811,134.952269 66.4215749,134.077783 65.64,133 C64.7763341,131.652929 64.359885,130.067623 64.45,128.47 C64.3969076,126.947894 64.7415764,125.438244 65.45,124.09 C66.119412,122.881222 67.0525051,121.838756 68.18,121.04 C69.3661245,120.221619 70.6909236,119.62529 72.09,119.28 C73.5498159,118.901297 75.0518626,118.709851 76.56,118.709851 C78.6021538,118.701705 80.6309232,119.039833 82.56,119.71 C84.4852313,120.369846 86.1563451,121.614442 87.34,123.27 L82.33,127.85 Z" id="Path" fill="#1E293B"></path>
            <path d="M91.59,109.22 C91.5705972,108.00524 92.0600864,106.837718 92.94,106 C93.8491992,105.097712 95.0897177,104.609462 96.37,104.65 C97.6642188,104.631308 98.9152567,105.115233 99.86,106 C100.764096,106.83482 101.278261,108.009425 101.278261,109.24 C101.278261,110.470575 100.764096,111.64518 99.86,112.48 C98.9059356,113.342957 97.6559665,113.80498 96.37,113.77 C95.0897177,113.810538 93.8491992,113.322288 92.94,112.42 C92.0672487,111.585638 91.5786016,110.427363 91.59,109.22 Z M92.66,119.48 L100.21,119.48 L100.21,149.69 L92.66,149.69 L92.66,119.48 Z" id="Shape" fill="#1E293B"></path>
            <path d="M104.43,134.58 C104.416059,132.340126 104.872574,130.122281 105.77,128.07 C107.408382,124.243325 110.563256,121.269557 114.48,119.86 C118.628554,118.340387 123.181446,118.340387 127.33,119.86 C131.246744,121.269557 134.401618,124.243325 136.04,128.07 C137.751404,132.234358 137.751404,136.905642 136.04,141.07 C134.401618,144.896675 131.246744,147.870443 127.33,149.28 C123.181446,150.799613 118.628554,150.799613 114.48,149.28 C110.569073,147.877305 107.41514,144.915287 105.77,141.1 C104.871202,139.044636 104.414657,136.82324 104.43,134.58 L104.43,134.58 Z M111.979963,134.58 C111.97679,135.739947 112.179955,136.891216 112.58,137.98 C112.9641,139.055939 113.562888,140.042578 114.34,140.88 C116.028882,142.668521 118.380095,143.682118 120.84,143.682118 C123.299905,143.682118 125.651118,142.668521 127.34,140.88 C128.117112,140.042578 128.7159,139.055939 129.1,137.98 C129.899572,135.787283 129.899572,133.382717 129.1,131.19 C128.7159,130.114061 128.117112,129.127422 127.34,128.29 C125.651118,126.501479 123.299905,125.487882 120.84,125.487882 C118.380095,125.487882 116.028882,126.501479 114.34,128.29 C113.562888,129.127422 112.9641,130.114061 112.58,131.19 C112.180711,132.275521 111.977551,133.423375 111.979963,134.58 Z" id="Shape" fill="#1E293B"></path>
            <path d="M141.31,119.48 L148.49,119.48 L148.49,124.32 L148.61,124.32 C149.367566,122.762819 150.493419,121.413856 151.89,120.39 C153.651102,119.18688 155.760559,118.599748 157.89,118.72 C159.653031,118.668383 161.405436,119.009982 163.02,119.72 C164.347224,120.331015 165.519622,121.233385 166.45,122.36 C167.341689,123.469833 167.982995,124.759266 168.33,126.14 C168.713733,127.598842 168.905352,129.101543 168.900109,130.61 L168.900109,149.69 L161.35,149.69 L161.35,134.4 C161.35,133.56 161.35,132.62 161.22,131.59 C161.147355,130.598842 160.924825,129.624432 160.56,128.7 C160.211975,127.810008 159.636054,127.027169 158.89,126.43 C157.997913,125.782752 156.910603,125.461501 155.81,125.52 C154.71592,125.485886 153.628434,125.701331 152.63,126.15 C151.798914,126.550144 151.067761,127.130966 150.49,127.85 C149.914537,128.572534 149.495665,129.406874 149.26,130.3 C149.005859,131.245651 148.878082,132.220796 148.88,133.2 L148.88,149.69 L141.33,149.69 L141.31,119.48 Z" id="Path" fill="#1E293B"></path>
            <path d="M191.23,105.13 L198.09,105.13 L217.29,149.69 L208.22,149.69 L204.07,139.49 L184.77,139.49 L180.77,149.69 L171.9,149.69 L191.23,105.13 Z M201.3,132.7 L194.44,114.57 L187.44,132.7 L201.3,132.7 Z" id="Shape" fill="#F58320"></path>
            <path d="M246.05,149.69 L238.87,149.69 L238.87,144.84 L238.77,144.84 C238.016281,146.399491 236.893907,147.751832 235.5,148.78 C233.737621,149.980374 231.629115,150.567241 229.5,150.45 C227.73765,150.493405 225.987017,150.152151 224.37,149.45 C223.032984,148.855303 221.85711,147.950257 220.94,146.81 C220.044097,145.690212 219.399521,144.390828 219.05,143 C218.666267,141.541158 218.474648,140.038457 218.479891,138.53 L218.479891,119.48 L226.03,119.48 L226.03,134.77 C226.03,135.61 226.03,136.55 226.16,137.57 C226.231489,138.564569 226.454041,139.542448 226.82,140.47 C227.164033,141.3542 227.728608,142.135654 228.46,142.74 C229.359095,143.396181 230.459001,143.718019 231.57,143.65 C232.672339,143.680905 233.767079,143.458536 234.77,143 C235.602731,142.602486 236.334428,142.021231 236.91,141.3 C237.487445,140.574991 237.90646,139.736962 238.14,138.84 C238.394307,137.897789 238.522096,136.925925 238.52,135.95 L238.52,119.48 L246.07,119.48 L246.05,149.69 Z" id="Path" fill="#F58320"></path>
            <path d="M248.63,125.9 L248.63,119.48 L254.86,119.48 L254.86,110.73 L262.42,110.73 L262.42,119.48 L270.77,119.48 L270.77,125.9 L262.47,125.9 L262.47,139.12 C262.405749,140.368764 262.697021,141.610139 263.31,142.7 C263.88,143.59 265,144.03 266.68,144.03 C267.421594,144.019842 268.160958,143.94624 268.89,143.81 C269.563036,143.709051 270.205202,143.459699 270.77,143.08 L270.77,149.44 C269.844193,149.855042 268.85878,150.121643 267.85,150.23 C266.835219,150.3635 265.813441,150.436961 264.79,150.45 C263.118503,150.498085 261.450248,150.275201 259.85,149.79 C258.684675,149.412793 257.646393,148.720605 256.85,147.79 C256.078319,146.807254 255.559799,145.650029 255.34,144.42 C255.050712,142.88726 254.91338,141.329713 254.93,139.77 L254.93,125.9 L248.63,125.9 Z" id="Path" fill="#F58320"></path>
            <path d="M281.77,123.69 L281.9,123.69 C282.611915,122.28956 283.68575,121.105233 285.01,120.26 C286.72874,119.172911 288.738074,118.635693 290.77,118.72 C292.533196,118.666358 294.286043,119.008043 295.9,119.72 C297.228847,120.328327 298.401805,121.231128 299.33,122.36 C300.222095,123.470967 300.866483,124.759744 301.22,126.14 C301.603733,127.598842 301.795352,129.101543 301.790109,130.61 L301.790109,149.69 L294.23,149.69 L294.23,134.4 C294.23,133.56 294.23,132.62 294.11,131.59 C294.027778,130.600302 293.805563,129.627274 293.45,128.7 C293.095499,127.81091 292.516694,127.028833 291.77,126.43 C290.877189,125.784223 289.790411,125.463129 288.69,125.52 C287.59592,125.485886 286.508434,125.701331 285.51,126.15 C284.677269,126.547514 283.945572,127.128769 283.37,127.85 C282.794537,128.572534 282.375665,129.406874 282.14,130.3 C281.885859,131.245651 281.758082,132.220796 281.76,133.2 L281.76,149.69 L274.21,149.69 L274.21,102.1 L281.77,102.1 L281.77,123.69 Z" id="Path" fill="#F58320"></path>
            <path d="M129.52,90.64 C125.921812,88.5720361 122.638456,85.9992319 119.77,83 C118.93808,84.0434745 117.921123,84.9248369 116.77,85.6 C116.134192,85.9589838 115.464221,86.2537711 114.77,86.48 C130.28942,103.427264 155.438306,107.450257 175.47,96.19 C176.417217,95.646126 177.001292,94.6372542 177.001292,93.545 C177.001292,92.4527458 176.417217,91.443874 175.47,90.9 L175.47,90.9 C174.550753,90.348546 173.407113,90.3294853 172.47,90.85 C159.125027,98.3858463 142.790646,98.3059809 129.52,90.64 Z" id="Path" fill="#1E293B"></path>
            <path d="M129.51,15.68 C133.109339,13.6040753 136.989285,12.0581593 141.03,11.09 C140.52791,9.81616965 140.270088,8.45921075 140.27,7.09 C140.271879,6.35127071 140.345559,5.61447306 140.49,4.89 C118.060776,9.87040455 102.018367,29.6458226 101.77,52.62 C101.773577,53.7114391 102.358223,54.7183478 103.304336,55.2625177 C104.25045,55.8066877 105.414784,55.8057283 106.36,55.26 L106.36,55.26 C107.288079,54.7385612 107.870322,53.7643502 107.89,52.7 C108.053524,37.4079122 116.271524,23.3362024 129.51,15.68 Z" id="Path" fill="#1E293B"></path>
            <path d="M194.42,53.16 C194.41861,57.3142307 193.819126,61.4466226 192.64,65.43 C193.984712,65.627096 195.28048,66.0748484 196.46,66.75 C197.09294,67.1121515 197.692021,67.5305039 198.25,68 C205.133914,46.0851213 196.020387,22.3153838 176.25,10.62 C175.303114,10.1239424 174.166004,10.157961 173.250466,10.7097362 C172.334928,11.2615113 171.77369,12.2510509 171.769836,13.32 L171.769836,13.32 C171.758902,14.3822662 172.310417,15.3711905 173.22,15.92 C186.365753,23.7199312 194.423611,37.8743942 194.42,53.16 Z" id="Path" fill="#1E293B"></path>
            <path d="M151.16,32.5799976 C159.484742,32.5759549 166.992025,37.5875455 170.180569,45.2774434 C173.369113,52.9673413 171.610845,61.8208059 165.725794,67.7087183 C159.840742,73.5966307 150.988133,75.3592018 143.296686,72.1743956 C135.60524,68.9895895 130.59,61.4847428 130.59,53.16 C130.601015,41.8024485 139.802455,32.5965348 151.16,32.5799976 M151.16,26.4699981 C136.41952,26.4699981 124.47,38.41952 124.47,53.16 C124.47,67.90048 136.41952,79.85 151.16,79.85 C165.90048,79.85 177.850002,67.90048 177.850002,53.16 C177.852654,46.0805586 175.041532,39.2903106 170.035611,34.2843892 C165.029689,29.2784678 158.239441,26.467346 151.16,26.4699981 Z" id="Shape" fill="#1E293B"></path>
            <circle id="Oval" fill="#F58320" cx="151.15" cy="7.12" r="7.12"></circle>
            <circle id="Oval" fill="#F58320" cx="111.28" cy="76.17" r="7.12"></circle>
            <circle id="Oval" fill="#F58320" cx="191.02" cy="76.17" r="7.12"></circle>
            <path d="M157.060036,48.29 C157.063937,45.4185057 154.999971,42.9611811 152.170941,42.4691646 C149.34191,41.9771481 146.56949,43.593343 145.603717,46.2975577 C144.637944,49.0017724 145.75932,52.0085835 148.26,53.42 L146.4,62.85 C146.339163,63.1477192 146.416999,63.4569489 146.611533,63.6903894 C146.806066,63.9238298 147.096191,64.0561522 147.4,64.0502054 L154.97,64.0502054 C155.273809,64.0561522 155.563934,63.9238298 155.758467,63.6903894 C155.953001,63.4569489 156.030837,63.1477192 155.97,62.85 L154.1,53.42 C155.937185,52.3665027 157.067356,50.4077941 157.060036,48.29 L157.060036,48.29 Z" id="Path" fill="#F58320"></path>
        </g>
    </g>
</svg>